<?xml version="1.0" encoding="UTF-8"?>
<mxfile host="app.diagrams.net" modified="1-basic-monolithic-scaling" agent="PlantUML Converter" version="1.0" etag="plantuml-diagram" type="device">
  <diagram id="plantuml-1-basic-monolithic-scaling" name="1-basic-monolithic-scaling">
    <mxGraphModel dx="1422" dy="794" grid="1" gridSize="10" guides="1" tooltips="1" connect="1" arrows="1" fold="1" page="1" pageScale="1" pageWidth="827" pageHeight="1169" math="0" shadow="0">
      <root>
        <mxCell id="0" />
        <mxCell id="1" parent="0" />
        <mxCell id="plantuml-container" value="" style="shape=image;html=1;verticalAlign=top;verticalLabelPosition=bottom;labelBackgroundColor=#ffffff;imageAspect=0;aspect=fixed;image=data:image/svg+xml,PD94bWwgdmVyc2lvbj0iMS4wIiBlbmNvZGluZz0idXMtYXNjaWkiIHN0YW5kYWxvbmU9Im5vIj8+PHN2ZyB4bWxucz0iaHR0cDovL3d3dy53My5vcmcvMjAwMC9zdmciIHhtbG5zOnhsaW5rPSJodHRwOi8vd3d3LnczLm9yZy8xOTk5L3hsaW5rIiBjb250ZW50U3R5bGVUeXBlPSJ0ZXh0L2NzcyIgaGVpZ2h0PSIxMTgzcHgiIHByZXNlcnZlQXNwZWN0UmF0aW89Im5vbmUiIHN0eWxlPSJ3aWR0aDoxMDc3cHg7aGVpZ2h0OjExODNweDtiYWNrZ3JvdW5kOiNGRkZGRkY7IiB2ZXJzaW9uPSIxLjEiIHZpZXdCb3g9IjAgMCAxMDc3IDExODMiIHdpZHRoPSIxMDc3cHgiIHpvb21BbmRQYW49Im1hZ25pZnkiPjxkZWZzLz48Zz48dGV4dCBmaWxsPSIjMDAwMDAwIiBmb250LWZhbWlseT0ic2Fucy1zZXJpZiIgZm9udC1zaXplPSIxNCIgZm9udC13ZWlnaHQ9ImJvbGQiIGxlbmd0aEFkanVzdD0ic3BhY2luZyIgdGV4dExlbmd0aD0iNDAzIiB4PSIzMzAiIHk9IjIzLjUzNTIiPkJhc2ljIE1vbm9saXRoaWMgQXBwbGljYXRpb24gU2NhbGluZyB3aXRoIExvYWQgQmFsYW5jZXI8L3RleHQ+PCEtLWNsdXN0ZXIgbGJfYm91bmRhcnktLT48ZyBpZD0iY2x1c3Rlcl9sYl9ib3VuZGFyeSI+PHJlY3QgZmlsbD0ibm9uZSIgaGVpZ2h0PSIyNjguMDYiIHJ4PSIyLjUiIHJ5PSIyLjUiIHN0eWxlPSJzdHJva2U6IzQ0NDQ0NDtzdHJva2Utd2lkdGg6MS4wO3N0cm9rZS1kYXNoYXJyYXk6Ny4wLDcuMDsiIHdpZHRoPSIyMTgiIHg9IjI3MCIgeT0iNDQuNDg4MyIvPjx0ZXh0IGZpbGw9IiM0NDQ0NDQiIGZvbnQtZmFtaWx5PSJzYW5zLXNlcmlmIiBmb250LXNpemU9IjE2IiBmb250LXdlaWdodD0iYm9sZCIgbGVuZ3RoQWRqdXN0PSJzcGFjaW5nIiB0ZXh0TGVuZ3RoPSIxNzIiIHg9IjI5MyIgeT0iODEuOTU3Ij5Mb2FkIEJhbGFuY2luZyBMYXllcjwvdGV4dD48dGV4dCBmaWxsPSIjNDQ0NDQ0IiBmb250LWZhbWlseT0ic2Fucy1zZXJpZiIgZm9udC1zaXplPSIxMiIgZm9udC13ZWlnaHQ9ImJvbGQiIGxlbmd0aEFkanVzdD0ic3BhY2luZyIgdGV4dExlbmd0aD0iNTMiIHg9IjM1Mi41IiB5PSI5Ni45MzM2Ij5bc3lzdGVtXTwvdGV4dD48L2c+PCEtLWNsdXN0ZXIgYXBwX2JvdW5kYXJ5LS0+PGcgaWQ9ImNsdXN0ZXJfYXBwX2JvdW5kYXJ5Ij48cmVjdCBmaWxsPSJub25lIiBoZWlnaHQ9IjI4NC4wNiIgcng9IjIuNSIgcnk9IjIuNSIgc3R5bGU9InN0cm9rZTojNDQ0NDQ0O3N0cm9rZS13aWR0aDoxLjA7c3Ryb2tlLWRhc2hhcnJheTo3LjAsNy4wOyIgd2lkdGg9IjQ5MCIgeD0iNyIgeT0iMzk2LjU0ODMiLz48dGV4dCBmaWxsPSIjNDQ0NDQ0IiBmb250LWZhbWlseT0ic2Fucy1zZXJpZiIgZm9udC1zaXplPSIxNiIgZm9udC13ZWlnaHQ9ImJvbGQiIGxlbmd0aEFkanVzdD0ic3BhY2luZyIgdGV4dExlbmd0aD0iMTQyIiB4PSIxODEiIHk9IjQzNC4wMTciPkFwcGxpY2F0aW9uIExheWVyPC90ZXh0Pjx0ZXh0IGZpbGw9IiM0NDQ0NDQiIGZvbnQtZmFtaWx5PSJzYW5zLXNlcmlmIiBmb250LXNpemU9IjEyIiBmb250LXdlaWdodD0iYm9sZCIgbGVuZ3RoQWRqdXN0PSJzcGFjaW5nIiB0ZXh0TGVuZ3RoPSI1MyIgeD0iMjI1LjUiIHk9IjQ0OC45OTM2Ij5bc3lzdGVtXTwvdGV4dD48L2c+PCEtLWNsdXN0ZXIgZGF0YV9ib3VuZGFyeS0tPjxnIGlkPSJjbHVzdGVyX2RhdGFfYm91bmRhcnkiPjxyZWN0IGZpbGw9Im5vbmUiIGhlaWdodD0iMjc2LjU4IiByeD0iMi41IiByeT0iMi41IiBzdHlsZT0ic3Ryb2tlOiM0NDQ0NDQ7c3Ryb2tlLXdpZHRoOjEuMDtzdHJva2UtZGFzaGFycmF5OjcuMCw3LjA7IiB3aWR0aD0iMjY0IiB4PSIxMjgiIHk9Ijc1OC42MDgzIi8+PHRleHQgZmlsbD0iIzQ0NDQ0NCIgZm9udC1mYW1pbHk9InNhbnMtc2VyaWYiIGZvbnQtc2l6ZT0iMTYiIGZvbnQtd2VpZ2h0PSJib2xkIiBsZW5ndGhBZGp1c3Q9InNwYWNpbmciIHRleHRMZW5ndGg9Ijg1IiB4PSIyMTcuNSIgeT0iNzk2LjA3NyI+RGF0YSBMYXllcjwvdGV4dD48dGV4dCBmaWxsPSIjNDQ0NDQ0IiBmb250LWZhbWlseT0ic2Fucy1zZXJpZiIgZm9udC1zaXplPSIxMiIgZm9udC13ZWlnaHQ9ImJvbGQiIGxlbmd0aEFkanVzdD0ic3BhY2luZyIgdGV4dExlbmd0aD0iNTMiIHg9IjIzMy41IiB5PSI4MTEuMDUzNiI+W3N5c3RlbV08L3RleHQ+PC9nPjwhLS1lbnRpdHkgbG9hZF9iYWxhbmNlci0tPjxnIGlkPSJlbGVtX2xvYWRfYmFsYW5jZXIiPjxyZWN0IGZpbGw9IiM0MzhERDUiIGhlaWdodD0iMTgxLjA2MjUiIHJ4PSIyLjUiIHJ5PSIyLjUiIHN0eWxlPSJzdHJva2U6IzNDN0ZDMDtzdHJva2Utd2lkdGg6MC41OyIgd2lkdGg9IjE4NyIgeD0iMjg1LjUiIHk9IjExNS40ODgzIi8+PHRleHQgZmlsbD0iI0ZGRkZGRiIgZm9udC1mYW1pbHk9InNhbnMtc2VyaWYiIGZvbnQtc2l6ZT0iMTIiIGZvbnQtc3R5bGU9Iml0YWxpYyIgbGVuZ3RoQWRqdXN0PSJzcGFjaW5nIiB0ZXh0TGVuZ3RoPSI2NSIgeD0iMzQ2LjUiIHk9IjEzNy4wODk4Ij4mIzE3MTtjb250YWluZXImIzE4Nzs8L3RleHQ+PGltYWdlIGhlaWdodD0iNDgiIHdpZHRoPSI0OCIgeD0iMzU1IiB4bGluazpocmVmPSJkYXRhOmltYWdlL3BuZztiYXNlNjQsaVZCT1J3MEtHZ29BQUFBTlNVaEVVZ0FBQURBQUFBQXdDQVlBQUFCWEF2bUhBQUFCZGtsRVFWUjRYdTFZdldxQ1FSRDAzVXp2Qy9nQXZrQWV3TTdHVkZhU3pzTEMwaTVWc0F2WVdFaFFFQVFSQkVIUlFFSkFPSm5pUHZmYjNXQ2p1QU1aR05EeHdCMXU5djRxMWZhMHdrd2pzTkVJYkRRQ0c0MVE2M3crMVYvbnJZalV0Um9ENCtWWGlvN21jSlZjQThQSlRvOE5DNlRFR0podHZ2VzRzSkN6VUJoWTczLzF1THZqK0hOS0wyL3I5RHhZSmhsZnBBRmEvMk1yUmw4UXhnQ0t6LzhQd2hDU0lEVXYybUVNTkhxTHNTd1dOYnpQRGlVRE1La1J4b0FzRnBISmtFdW0xNXRoREFBNU5oclE4SnNIMXdEREhwQWhvMWNZa0ZNWUdickppdzhnbktIcmtjMkk3STQycGVLTkFVWWFnWTJsTDlRUm9tOWkrbVdVZmlON2hBSGsyb3R3UGtyZzNPL1ZGY1lBL1dHTy9qaDk3VUtEWmRPRGE4QnJwS2h3RFhoVEZSWHVwUjRpdzE3dzU3T0tOS0lmbEtKUTErb2FZS01ScUdlQXVnZm9WeUg2ZlNEaVR2ei90SGh2MEo5R3I5MEhRSzgzd3hnQWJuWWpZOWdETXR3N01mMnJCRWo5THNSS0k3RFJDR3cwQWh1TndNWXoxRFJDU1hMcG9hSUFBQUFBU1VWT1JLNUNZSUk9IiB5PSIxMzkuNjIxMSIvPjx0ZXh0IGZpbGw9IiNGRkZGRkYiIGZvbnQtZmFtaWx5PSJzYW5zLXNlcmlmIiBmb250LXNpemU9IjE2IiBmb250LXdlaWdodD0iYm9sZCIgbGVuZ3RoQWRqdXN0PSJzcGFjaW5nIiB0ZXh0TGVuZ3RoPSIzOSIgeD0iMzIyLjUiIHk9IjIwMy4wODk4Ij5Mb2FkPC90ZXh0Pjx0ZXh0IGZpbGw9IiNGRkZGRkYiIGZvbnQtZmFtaWx5PSJzYW5zLXNlcmlmIiBmb250LXNpemU9IjE2IiBmb250LXdlaWdodD0iYm9sZCIgbGVuZ3RoQWRqdXN0PSJzcGFjaW5nIiB0ZXh0TGVuZ3RoPSI1IiB4PSIzNjEuNSIgeT0iMjAzLjA4OTgiPiYjMTYwOzwvdGV4dD48dGV4dCBmaWxsPSIjRkZGRkZGIiBmb250LWZhbWlseT0ic2Fucy1zZXJpZiIgZm9udC1zaXplPSIxNiIgZm9udC13ZWlnaHQ9ImJvbGQiIGxlbmd0aEFkanVzdD0ic3BhY2luZyIgdGV4dExlbmd0aD0iNjkiIHg9IjM2Ni41IiB5PSIyMDMuMDg5OCI+QmFsYW5jZXI8L3RleHQ+PHRleHQgZmlsbD0iI0ZGRkZGRiIgZm9udC1mYW1pbHk9InNhbnMtc2VyaWYiIGZvbnQtc2l6ZT0iMTIiIGZvbnQtc3R5bGU9Iml0YWxpYyIgbGVuZ3RoQWRqdXN0PSJzcGFjaW5nIiB0ZXh0TGVuZ3RoPSIxMDEiIHg9IjMyOC41IiB5PSIyMTguMDY2NCI+W05HSU5YL0hBUHJveHldPC90ZXh0Pjx0ZXh0IGZpbGw9IiNGRkZGRkYiIGZvbnQtZmFtaWx5PSJzYW5zLXNlcmlmIiBmb250LXNpemU9IjE0IiBsZW5ndGhBZGp1c3Q9InNwYWNpbmciIHRleHRMZW5ndGg9IjQiIHg9IjM3NyIgeT0iMjM0LjEzMjgiPiYjMTYwOzwvdGV4dD48dGV4dCBmaWxsPSIjRkZGRkZGIiBmb250LWZhbWlseT0ic2Fucy1zZXJpZiIgZm9udC1zaXplPSIxNCIgbGVuZ3RoQWRqdXN0PSJzcGFjaW5nIiB0ZXh0TGVuZ3RoPSI3NCIgeD0iMzA4IiB5PSIyNTAuNjIxMSI+RGlzdHJpYnV0ZXM8L3RleHQ+PHRleHQgZmlsbD0iI0ZGRkZGRiIgZm9udC1mYW1pbHk9InNhbnMtc2VyaWYiIGZvbnQtc2l6ZT0iMTQiIGxlbmd0aEFkanVzdD0ic3BhY2luZyIgdGV4dExlbmd0aD0iNCIgeD0iMzgyIiB5PSIyNTAuNjIxMSI+JiMxNjA7PC90ZXh0Pjx0ZXh0IGZpbGw9IiNGRkZGRkYiIGZvbnQtZmFtaWx5PSJzYW5zLXNlcmlmIiBmb250LXNpemU9IjE0IiBsZW5ndGhBZGp1c3Q9InNwYWNpbmciIHRleHRMZW5ndGg9IjY0IiB4PSIzODYiIHk9IjI1MC42MjExIj5pbmNvbWluZzwvdGV4dD48dGV4dCBmaWxsPSIjRkZGRkZGIiBmb250LWZhbWlseT0ic2Fucy1zZXJpZiIgZm9udC1zaXplPSIxNCIgbGVuZ3RoQWRqdXN0PSJzcGFjaW5nIiB0ZXh0TGVuZ3RoPSI1OSIgeD0iMjk1LjUiIHk9IjI2Ny4xMDk0Ij5yZXF1ZXN0czwvdGV4dD48dGV4dCBmaWxsPSIjRkZGRkZGIiBmb250LWZhbWlseT0ic2Fucy1zZXJpZiIgZm9udC1zaXplPSIxNCIgbGVuZ3RoQWRqdXN0PSJzcGFjaW5nIiB0ZXh0TGVuZ3RoPSI0IiB4PSIzNTQuNSIgeT0iMjY3LjEwOTQiPiYjMTYwOzwvdGV4dD48dGV4dCBmaWxsPSIjRkZGRkZGIiBmb250LWZhbWlseT0ic2Fucy1zZXJpZiIgZm9udC1zaXplPSIxNCIgbGVuZ3RoQWRqdXN0PSJzcGFjaW5nIiB0ZXh0TGVuZ3RoPSI0NCIgeD0iMzU4LjUiIHk9IjI2Ny4xMDk0Ij5hY3Jvc3M8L3RleHQ+PHRleHQgZmlsbD0iI0ZGRkZGRiIgZm9udC1mYW1pbHk9InNhbnMtc2VyaWYiIGZvbnQtc2l6ZT0iMTQiIGxlbmd0aEFkanVzdD0ic3BhY2luZyIgdGV4dExlbmd0aD0iNCIgeD0iNDAyLjUiIHk9IjI2Ny4xMDk0Ij4mIzE2MDs8L3RleHQ+PHRleHQgZmlsbD0iI0ZGRkZGRiIgZm9udC1mYW1pbHk9InNhbnMtc2VyaWYiIGZvbnQtc2l6ZT0iMTQiIGxlbmd0aEFkanVzdD0ic3BhY2luZyIgdGV4dExlbmd0aD0iNTYiIHg9IjQwNi41IiB5PSIyNjcuMTA5NCI+bXVsdGlwbGU8L3RleHQ+PHRleHQgZmlsbD0iI0ZGRkZGRiIgZm9udC1mYW1pbHk9InNhbnMtc2VyaWYiIGZvbnQtc2l6ZT0iMTQiIGxlbmd0aEFkanVzdD0ic3BhY2luZyIgdGV4dExlbmd0aD0iNzYiIHg9IjMwNyIgeT0iMjgzLjU5NzciPmFwcGxpY2F0aW9uPC90ZXh0Pjx0ZXh0IGZpbGw9IiNGRkZGRkYiIGZvbnQtZmFtaWx5PSJzYW5zLXNlcmlmIiBmb250LXNpemU9IjE0IiBsZW5ndGhBZGp1c3Q9InNwYWNpbmciIHRleHRMZW5ndGg9IjQiIHg9IjM4MyIgeT0iMjgzLjU5NzciPiYjMTYwOzwvdGV4dD48dGV4dCBmaWxsPSIjRkZGRkZGIiBmb250LWZhbWlseT0ic2Fucy1zZXJpZiIgZm9udC1zaXplPSIxNCIgbGVuZ3RoQWRqdXN0PSJzcGFjaW5nIiB0ZXh0TGVuZ3RoPSI2NCIgeD0iMzg3IiB5PSIyODMuNTk3NyI+aW5zdGFuY2VzPC90ZXh0PjwvZz48IS0tZW50aXR5IGFwcF9zZXJ2ZXJfMS0tPjxnIGlkPSJlbGVtX2FwcF9zZXJ2ZXJfMSI+PHJlY3QgZmlsbD0iIzQzOERENSIgaGVpZ2h0PSIxODEuMDYyNSIgcng9IjIuNSIgcnk9IjIuNSIgc3R5bGU9InN0cm9rZTojM0M3RkMwO3N0cm9rZS13aWR0aDowLjU7IiB3aWR0aD0iMjA2IiB4PSIzMSIgeT0iNDc1LjU0ODMiLz48dGV4dCBmaWxsPSIjRkZGRkZGIiBmb250LWZhbWlseT0ic2Fucy1zZXJpZiIgZm9udC1zaXplPSIxMiIgZm9udC1zdHlsZT0iaXRhbGljIiBsZW5ndGhBZGp1c3Q9InNwYWNpbmciIHRleHRMZW5ndGg9IjY1IiB4PSIxMDEuNSIgeT0iNDk3LjE0OTgiPiYjMTcxO2NvbnRhaW5lciYjMTg3OzwvdGV4dD48aW1hZ2UgaGVpZ2h0PSI0OCIgd2lkdGg9IjQ4IiB4PSIxMTAiIHhsaW5rOmhyZWY9ImRhdGE6aW1hZ2UvcG5nO2Jhc2U2NCxpVkJPUncwS0dnb0FBQUFOU1VoRVVnQUFBREFBQUFBd0NBWUFBQUJYQXZtSEFBQUMwRWxFUVZSNFh0V1h2V3BVVVJTRjgyN2Erd0krZ0MvZ0E2UkxvNVdWMkZta1NKa3VWYkFUMGxpSVJCQUNFZ2dJaWdvR1FSajlBZ3UyZTUyNWM4L1BRTTZCRCs2c08zZnUzbWYvbkQwSEQ1NjlQNWdaRTJiRGhOa3dZVFpNbUEwVDlzbWpGeDhlUG43MThTanJQWml3YjQ3ZmZ0bGtyUWNUOWdrUnVMajZPYThEaDZlZk4rZVgzK2QxNFBMbTErYmxtNXM1SFhoK2RyMWhrVWI1WGc4bTdBTlNoelY2OThHRTBXam5SeGV2TUdFa3ArKytGbzBualhDTXlPUm5hakZoQkJoSXdiSmkxMEhuSE9EZXFBUE5oRjR3N1ByYjd6dmppWUIwZHZ2SDdaLy90QkdZMEFNN0xPUGppY3MxNjk0WE1ibWVjMTRkYVBRQkpreG9oZDIvcy9UZml2bXRXbmp5K3RORmZtWUVKclFpQjBpaHFNdXBweWRYOXpzQ2dQRVVhdFQ0ek1xdGRCUW05S0I4anlta0FtYlIrL016dlpqUUM4V2FlNytpa0tNekFoTkdRTHJFbk9kYWEzUXRtREFLb2hBblQ3WFlVU2V3TUdFa2NiZHhhT2tVeHRtV1VkdUVHalNVY2NJdTlYbk5RRmtYT01ydmNHWVFxUnBIVEZnRDNZWVgwVGFYREJjbGc5Qks2Y1J2NGtqV3QySENMdUs4UTFjaE5ZZ0FhRVFHUllhZEI5SUhwN1hMMitZaXRkMlMweVZNV0FzdlVPaWprVUlhaHVJUWtTcnRlQWJuYXRxdENTMnMzYTFkcU4zVy9ORXhvUlpTWXFsQUkwUUFJMHVSUUdmbmE0d0hFMnJSdE1sU0FaSUdnczg2aWJYaVB6SjFLR2lKcEFrdFlJeHFRYU5FQkozN3BWTjRUUmRid29UWk1LRUZ1azRlSFRMSy82WHZ0R0JDQzdFT1dPUTg5YUQvQjNtTkhLdE5XQU41UzdlSTNZVGRKUklxMm1nNG1nNjhVZ2Zxd1lSdEVIcWRwcld0YmkxS3M2d3ZZVUlKZmxpN1NVY1p2WXRFVkdOSHZyY0xFMHFvVjJzR1luRk5OSWlLNXFBNEM4V1pLTTVGS25qU1NxbkZmUlczSnR4c3d6Wk1XQU12VVIxRXcyUWM0Snl1TlJ2RnVTaDJJNTBqK241TnB6S2hCam1oOFFCNGVRYWQ3MGFuUzlOcFMycWEwSUtLVDhZSmpRaHhNbFdhNVNpMFlzSnNtREFiSnN5R0NiUHhGN2JiMjdxZkY3SmtBQUFBQUVsRlRrU3VRbUNDIiB5PSI0OTkuNjgxMSIvPjx0ZXh0IGZpbGw9IiNGRkZGRkYiIGZvbnQtZmFtaWx5PSJzYW5zLXNlcmlmIiBmb250LXNpemU9IjE2IiBmb250LXdlaWdodD0iYm9sZCIgbGVuZ3RoQWRqdXN0PSJzcGFjaW5nIiB0ZXh0TGVuZ3RoPSIzNCIgeD0iODEuNSIgeT0iNTYzLjE0OTgiPkFwcDwvdGV4dD48dGV4dCBmaWxsPSIjRkZGRkZGIiBmb250LWZhbWlseT0ic2Fucy1zZXJpZiIgZm9udC1zaXplPSIxNiIgZm9udC13ZWlnaHQ9ImJvbGQiIGxlbmd0aEFkanVzdD0ic3BhY2luZyIgdGV4dExlbmd0aD0iNSIgeD0iMTE1LjUiIHk9IjU2My4xNDk4Ij4mIzE2MDs8L3RleHQ+PHRleHQgZmlsbD0iI0ZGRkZGRiIgZm9udC1mYW1pbHk9InNhbnMtc2VyaWYiIGZvbnQtc2l6ZT0iMTYiIGZvbnQtd2VpZ2h0PSJib2xkIiBsZW5ndGhBZGp1c3Q9InNwYWNpbmciIHRleHRMZW5ndGg9IjUwIiB4PSIxMjAuNSIgeT0iNTYzLjE0OTgiPlNlcnZlcjwvdGV4dD48dGV4dCBmaWxsPSIjRkZGRkZGIiBmb250LWZhbWlseT0ic2Fucy1zZXJpZiIgZm9udC1zaXplPSIxNiIgZm9udC13ZWlnaHQ9ImJvbGQiIGxlbmd0aEFkanVzdD0ic3BhY2luZyIgdGV4dExlbmd0aD0iNSIgeD0iMTcwLjUiIHk9IjU2My4xNDk4Ij4mIzE2MDs8L3RleHQ+PHRleHQgZmlsbD0iI0ZGRkZGRiIgZm9udC1mYW1pbHk9InNhbnMtc2VyaWYiIGZvbnQtc2l6ZT0iMTYiIGZvbnQtd2VpZ2h0PSJib2xkIiBsZW5ndGhBZGp1c3Q9InNwYWNpbmciIHRleHRMZW5ndGg9IjExIiB4PSIxNzUuNSIgeT0iNTYzLjE0OTgiPjE8L3RleHQ+PHRleHQgZmlsbD0iI0ZGRkZGRiIgZm9udC1mYW1pbHk9InNhbnMtc2VyaWYiIGZvbnQtc2l6ZT0iMTIiIGZvbnQtc3R5bGU9Iml0YWxpYyIgbGVuZ3RoQWRqdXN0PSJzcGFjaW5nIiB0ZXh0TGVuZ3RoPSIyOCIgeD0iODMuNSIgeT0iNTc4LjEyNjQiPltKYXZhPC90ZXh0Pjx0ZXh0IGZpbGw9IiNGRkZGRkYiIGZvbnQtZmFtaWx5PSJzYW5zLXNlcmlmIiBmb250LXNpemU9IjEyIiBmb250LXN0eWxlPSJpdGFsaWMiIGxlbmd0aEFkanVzdD0ic3BhY2luZyIgdGV4dExlbmd0aD0iNCIgeD0iMTExLjUiIHk9IjU3OC4xMjY0Ij4mIzE2MDs8L3RleHQ+PHRleHQgZmlsbD0iI0ZGRkZGRiIgZm9udC1mYW1pbHk9InNhbnMtc2VyaWYiIGZvbnQtc2l6ZT0iMTIiIGZvbnQtc3R5bGU9Iml0YWxpYyIgbGVuZ3RoQWRqdXN0PSJzcGFjaW5nIiB0ZXh0TGVuZ3RoPSIzNiIgeD0iMTE1LjUiIHk9IjU3OC4xMjY0Ij5TcHJpbmc8L3RleHQ+PHRleHQgZmlsbD0iI0ZGRkZGRiIgZm9udC1mYW1pbHk9InNhbnMtc2VyaWYiIGZvbnQtc2l6ZT0iMTIiIGZvbnQtc3R5bGU9Iml0YWxpYyIgbGVuZ3RoQWRqdXN0PSJzcGFjaW5nIiB0ZXh0TGVuZ3RoPSI0IiB4PSIxNTEuNSIgeT0iNTc4LjEyNjQiPiYjMTYwOzwvdGV4dD48dGV4dCBmaWxsPSIjRkZGRkZGIiBmb250LWZhbWlseT0ic2Fucy1zZXJpZiIgZm9udC1zaXplPSIxMiIgZm9udC1zdHlsZT0iaXRhbGljIiBsZW5ndGhBZGp1c3Q9InNwYWNpbmciIHRleHRMZW5ndGg9IjI5IiB4PSIxNTUuNSIgeT0iNTc4LjEyNjQiPkJvb3RdPC90ZXh0Pjx0ZXh0IGZpbGw9IiNGRkZGRkYiIGZvbnQtZmFtaWx5PSJzYW5zLXNlcmlmIiBmb250LXNpemU9IjE0IiBsZW5ndGhBZGp1c3Q9InNwYWNpbmciIHRleHRMZW5ndGg9IjQiIHg9IjEzMiIgeT0iNTk0LjE5MjgiPiYjMTYwOzwvdGV4dD48dGV4dCBmaWxsPSIjRkZGRkZGIiBmb250LWZhbWlseT0ic2Fucy1zZXJpZiIgZm9udC1zaXplPSIxNCIgbGVuZ3RoQWRqdXN0PSJzcGFjaW5nIiB0ZXh0TGVuZ3RoPSI3MiIgeD0iNTgiIHk9IjYxMC42ODExIj5Nb25vbGl0aGljPC90ZXh0Pjx0ZXh0IGZpbGw9IiNGRkZGRkYiIGZvbnQtZmFtaWx5PSJzYW5zLXNlcmlmIiBmb250LXNpemU9IjE0IiBsZW5ndGhBZGp1c3Q9InNwYWNpbmciIHRleHRMZW5ndGg9IjQiIHg9IjEzMCIgeT0iNjEwLjY4MTEiPiYjMTYwOzwvdGV4dD48dGV4dCBmaWxsPSIjRkZGRkZGIiBmb250LWZhbWlseT0ic2Fucy1zZXJpZiIgZm9udC1zaXplPSIxNCIgbGVuZ3RoQWRqdXN0PSJzcGFjaW5nIiB0ZXh0TGVuZ3RoPSI3NiIgeD0iMTM0IiB5PSI2MTAuNjgxMSI+YXBwbGljYXRpb248L3RleHQ+PHRleHQgZmlsbD0iI0ZGRkZGRiIgZm9udC1mYW1pbHk9InNhbnMtc2VyaWYiIGZvbnQtc2l6ZT0iMTQiIGxlbmd0aEFkanVzdD0ic3BhY2luZyIgdGV4dExlbmd0aD0iNTciIHg9IjQxIiB5PSI2MjcuMTY5NCI+aW5zdGFuY2U8L3RleHQ+PHRleHQgZmlsbD0iI0ZGRkZGRiIgZm9udC1mYW1pbHk9InNhbnMtc2VyaWYiIGZvbnQtc2l6ZT0iMTQiIGxlbmd0aEFkanVzdD0ic3BhY2luZyIgdGV4dExlbmd0aD0iNCIgeD0iOTgiIHk9IjYyNy4xNjk0Ij4mIzE2MDs8L3RleHQ+PHRleHQgZmlsbD0iI0ZGRkZGRiIgZm9udC1mYW1pbHk9InNhbnMtc2VyaWYiIGZvbnQtc2l6ZT0iMTQiIGxlbmd0aEFkanVzdD0ic3BhY2luZyIgdGV4dExlbmd0aD0iNjEiIHg9IjEwMiIgeT0iNjI3LjE2OTQiPmhhbmRsaW5nPC90ZXh0Pjx0ZXh0IGZpbGw9IiNGRkZGRkYiIGZvbnQtZmFtaWx5PSJzYW5zLXNlcmlmIiBmb250LXNpemU9IjE0IiBsZW5ndGhBZGp1c3Q9InNwYWNpbmciIHRleHRMZW5ndGg9IjQiIHg9IjE2MyIgeT0iNjI3LjE2OTQiPiYjMTYwOzwvdGV4dD48dGV4dCBmaWxsPSIjRkZGRkZGIiBmb250LWZhbWlseT0ic2Fucy1zZXJpZiIgZm9udC1zaXplPSIxNCIgbGVuZ3RoQWRqdXN0PSJzcGFjaW5nIiB0ZXh0TGVuZ3RoPSI2MCIgeD0iMTY3IiB5PSI2MjcuMTY5NCI+YnVzaW5lc3M8L3RleHQ+PHRleHQgZmlsbD0iI0ZGRkZGRiIgZm9udC1mYW1pbHk9InNhbnMtc2VyaWYiIGZvbnQtc2l6ZT0iMTQiIGxlbmd0aEFkanVzdD0ic3BhY2luZyIgdGV4dExlbmd0aD0iMzMiIHg9IjExNy41IiB5PSI2NDMuNjU3NyI+bG9naWM8L3RleHQ+PC9nPjwhLS1lbnRpdHkgYXBwX3NlcnZlcl8yLS0+PGcgaWQ9ImVsZW1fYXBwX3NlcnZlcl8yIj48cmVjdCBmaWxsPSIjNDM4REQ1IiBoZWlnaHQ9IjE4MS4wNjI1IiByeD0iMi41IiByeT0iMi41IiBzdHlsZT0ic3Ryb2tlOiMzQzdGQzA7c3Ryb2tlLXdpZHRoOjAuNTsiIHdpZHRoPSIxODEiIHg9IjI3Mi41IiB5PSI0NzUuNTQ4MyIvPjx0ZXh0IGZpbGw9IiNGRkZGRkYiIGZvbnQtZmFtaWx5PSJzYW5zLXNlcmlmIiBmb250LXNpemU9IjEyIiBmb250LXN0eWxlPSJpdGFsaWMiIGxlbmd0aEFkanVzdD0ic3BhY2luZyIgdGV4dExlbmd0aD0iNjUiIHg9IjMzMC41IiB5PSI0OTcuMTQ5OCI+JiMxNzE7Y29udGFpbmVyJiMxODc7PC90ZXh0PjxpbWFnZSBoZWlnaHQ9IjQ4IiB3aWR0aD0iNDgiIHg9IjMzOSIgeGxpbms6aHJlZj0iZGF0YTppbWFnZS9wbmc7YmFzZTY0LGlWQk9SdzBLR2dvQUFBQU5TVWhFVWdBQUFEQUFBQUF3Q0FZQUFBQlhBdm1IQUFBQzBFbEVRVlI0WHRXWHZXcFVVUlNGODI3YSt3SStnQy9nQTZSTG81V1YyRm1rU0prdVZiQVQwbGlJUkJBQ0VnZ0lpZ29HUVJqOUFndTJlNTI1YzgvUFFNNkJEKzZzTzNmdTNtZi9uRDBIRDU2OVA1Z1pFMmJEaE5rd1lUWk1tQTBUOXNtakZ4OGVQbjcxOFNqclBaaXdiNDdmZnRsa3JRY1Q5Z2tSdUxqNk9hOERoNmVmTitlWDMrZDE0UExtMStibG01czVIWGgrZHIxaGtVYjVYZzhtN0FOU2h6VjY5OEdFMFdqblJ4ZXZNR0VrcCsrK0ZvMG5qWENNeU9SbmFqRmhCQmhJd2JKaTEwSG5IT0RlcUFQTmhGNHc3UHJiN3p2amlZQjBkdnZIN1ovL3RCR1kwQU03TE9QamljczE2OTRYTWJtZWMxNGRhUFFCSmt4b2hkMi9zL1RmaXZtdFduankrdE5GZm1ZRUpyUWlCMGlocU11cHB5ZFg5enNDZ1BFVWF0VDR6TXF0ZEJRbTlLQjhqeW1rQW1iUisvTXp2WmpRQzhXYWU3K2lrS016QWhOR1FMckVuT2RhYTNRdG1EQUtvaEFuVDdYWVVTZXdNR0VrY2JkeGFPa1V4dG1XVWR1RUdqU1VjY0l1OVhuTlFGa1hPTXJ2Y0dZUXFScEhURmdEM1lZWDBUYVhEQmNsZzlCSzZjUnY0a2pXdDJIQ0x1SzhRMWNoTllnQWFFUUdSWWFkQjlJSHA3WEwyK1lpdGQyUzB5Vk1XQXN2VU9pamtVSWFodUlRa1NydGVBYm5hdHF0Q1MyczNhMWRxTjNXL05FeG9SWlNZcWxBSTBRQUkwdVJRR2ZuYTR3SEUyclJ0TWxTQVpJR2dzODZpYlhpUHpKMUtHaUpwQWt0WUl4cVFhTkVCSjM3cFZONFRSZGJ3b1RaTUtFRnVrNGVIVExLLzZYdnRHQkNDN0VPV09RODlhRC9CM21OSEt0TldBTjVTN2VJM1lUZEpSSXEybWc0bWc2OFVnZnF3WVJ0RUhxZHByV3RiaTFLczZ3dllVSUpmbGk3U1VjWnZZdEVWR05IdnJjTEUwcW9WMnNHWW5GTk5JaUs1cUE0QzhXWktNNUZLbmpTU3FuRmZSVzNKdHhzd3paTVdBTXZVUjFFdzJRYzRKeXVOUnZGdVNoMkk1MGorbjVOcHpLaEJqbWg4UUI0ZVFhZDcwYW5TOU5wUzJxYTBJS0tUOFlKalFoeE1sV2E1U2kwWXNKc21EQWJKc3lHQ2JQeEY3YmIyN3FmRjdKa0FBQUFBRWxGVGtTdVFtQ0MiIHk9IjQ5OS42ODExIi8+PHRleHQgZmlsbD0iI0ZGRkZGRiIgZm9udC1mYW1pbHk9InNhbnMtc2VyaWYiIGZvbnQtc2l6ZT0iMTYiIGZvbnQtd2VpZ2h0PSJib2xkIiBsZW5ndGhBZGp1c3Q9InNwYWNpbmciIHRleHRMZW5ndGg9IjM0IiB4PSIzMTAuNSIgeT0iNTYzLjE0OTgiPkFwcDwvdGV4dD48dGV4dCBmaWxsPSIjRkZGRkZGIiBmb250LWZhbWlseT0ic2Fucy1zZXJpZiIgZm9udC1zaXplPSIxNiIgZm9udC13ZWlnaHQ9ImJvbGQiIGxlbmd0aEFkanVzdD0ic3BhY2luZyIgdGV4dExlbmd0aD0iNSIgeD0iMzQ0LjUiIHk9IjU2My4xNDk4Ij4mIzE2MDs8L3RleHQ+PHRleHQgZmlsbD0iI0ZGRkZGRiIgZm9udC1mYW1pbHk9InNhbnMtc2VyaWYiIGZvbnQtc2l6ZT0iMTYiIGZvbnQtd2VpZ2h0PSJib2xkIiBsZW5ndGhBZGp1c3Q9InNwYWNpbmciIHRleHRMZW5ndGg9IjUwIiB4PSIzNDkuNSIgeT0iNTYzLjE0OTgiPlNlcnZlcjwvdGV4dD48dGV4dCBmaWxsPSIjRkZGRkZGIiBmb250LWZhbWlseT0ic2Fucy1zZXJpZiIgZm9udC1zaXplPSIxNiIgZm9udC13ZWlnaHQ9ImJvbGQiIGxlbmd0aEFkanVzdD0ic3BhY2luZyIgdGV4dExlbmd0aD0iNSIgeD0iMzk5LjUiIHk9IjU2My4xNDk4Ij4mIzE2MDs8L3RleHQ+PHRleHQgZmlsbD0iI0ZGRkZGRiIgZm9udC1mYW1pbHk9InNhbnMtc2VyaWYiIGZvbnQtc2l6ZT0iMTYiIGZvbnQtd2VpZ2h0PSJib2xkIiBsZW5ndGhBZGp1c3Q9InNwYWNpbmciIHRleHRMZW5ndGg9IjExIiB4PSI0MDQuNSIgeT0iNTYzLjE0OTgiPjI8L3RleHQ+PHRleHQgZmlsbD0iI0ZGRkZGRiIgZm9udC1mYW1pbHk9InNhbnMtc2VyaWYiIGZvbnQtc2l6ZT0iMTIiIGZvbnQtc3R5bGU9Iml0YWxpYyIgbGVuZ3RoQWRqdXN0PSJzcGFjaW5nIiB0ZXh0TGVuZ3RoPSIyOCIgeD0iMzEyLjUiIHk9IjU3OC4xMjY0Ij5bSmF2YTwvdGV4dD48dGV4dCBmaWxsPSIjRkZGRkZGIiBmb250LWZhbWlseT0ic2Fucy1zZXJpZiIgZm9udC1zaXplPSIxMiIgZm9udC1zdHlsZT0iaXRhbGljIiBsZW5ndGhBZGp1c3Q9InNwYWNpbmciIHRleHRMZW5ndGg9IjQiIHg9IjM0MC41IiB5PSI1NzguMTI2NCI+JiMxNjA7PC90ZXh0Pjx0ZXh0IGZpbGw9IiNGRkZGRkYiIGZvbnQtZmFtaWx5PSJzYW5zLXNlcmlmIiBmb250LXNpemU9IjEyIiBmb250LXN0eWxlPSJpdGFsaWMiIGxlbmd0aEFkanVzdD0ic3BhY2luZyIgdGV4dExlbmd0aD0iMzYiIHg9IjM0NC41IiB5PSI1NzguMTI2NCI+U3ByaW5nPC90ZXh0Pjx0ZXh0IGZpbGw9IiNGRkZGRkYiIGZvbnQtZmFtaWx5PSJzYW5zLXNlcmlmIiBmb250LXNpemU9IjEyIiBmb250LXN0eWxlPSJpdGFsaWMiIGxlbmd0aEFkanVzdD0ic3BhY2luZyIgdGV4dExlbmd0aD0iNCIgeD0iMzgwLjUiIHk9IjU3OC4xMjY0Ij4mIzE2MDs8L3RleHQ+PHRleHQgZmlsbD0iI0ZGRkZGRiIgZm9udC1mYW1pbHk9InNhbnMtc2VyaWYiIGZvbnQtc2l6ZT0iMTIiIGZvbnQtc3R5bGU9Iml0YWxpYyIgbGVuZ3RoQWRqdXN0PSJzcGFjaW5nIiB0ZXh0TGVuZ3RoPSIyOSIgeD0iMzg0LjUiIHk9IjU3OC4xMjY0Ij5Cb290XTwvdGV4dD48dGV4dCBmaWxsPSIjRkZGRkZGIiBmb250LWZhbWlseT0ic2Fucy1zZXJpZiIgZm9udC1zaXplPSIxNCIgbGVuZ3RoQWRqdXN0PSJzcGFjaW5nIiB0ZXh0TGVuZ3RoPSI0IiB4PSIzNjEiIHk9IjU5NC4xOTI4Ij4mIzE2MDs8L3RleHQ+PHRleHQgZmlsbD0iI0ZGRkZGRiIgZm9udC1mYW1pbHk9InNhbnMtc2VyaWYiIGZvbnQtc2l6ZT0iMTQiIGxlbmd0aEFkanVzdD0ic3BhY2luZyIgdGV4dExlbmd0aD0iNTgiIHg9IjI5NS41IiB5PSI2MTAuNjgxMSI+SWRlbnRpY2FsPC90ZXh0Pjx0ZXh0IGZpbGw9IiNGRkZGRkYiIGZvbnQtZmFtaWx5PSJzYW5zLXNlcmlmIiBmb250LXNpemU9IjE0IiBsZW5ndGhBZGp1c3Q9InNwYWNpbmciIHRleHRMZW5ndGg9IjQiIHg9IjM1My41IiB5PSI2MTAuNjgxMSI+JiMxNjA7PC90ZXh0Pjx0ZXh0IGZpbGw9IiNGRkZGRkYiIGZvbnQtZmFtaWx5PSJzYW5zLXNlcmlmIiBmb250LXNpemU9IjE0IiBsZW5ndGhBZGp1c3Q9InNwYWNpbmciIHRleHRMZW5ndGg9IjczIiB4PSIzNTcuNSIgeT0iNjEwLjY4MTEiPm1vbm9saXRoaWM8L3RleHQ+PHRleHQgZmlsbD0iI0ZGRkZGRiIgZm9udC1mYW1pbHk9InNhbnMtc2VyaWYiIGZvbnQtc2l6ZT0iMTQiIGxlbmd0aEFkanVzdD0ic3BhY2luZyIgdGV4dExlbmd0aD0iNzYiIHg9IjI4Mi41IiB5PSI2MjcuMTY5NCI+YXBwbGljYXRpb248L3RleHQ+PHRleHQgZmlsbD0iI0ZGRkZGRiIgZm9udC1mYW1pbHk9InNhbnMtc2VyaWYiIGZvbnQtc2l6ZT0iMTQiIGxlbmd0aEFkanVzdD0ic3BhY2luZyIgdGV4dExlbmd0aD0iNCIgeD0iMzU4LjUiIHk9IjYyNy4xNjk0Ij4mIzE2MDs8L3RleHQ+PHRleHQgZmlsbD0iI0ZGRkZGRiIgZm9udC1mYW1pbHk9InNhbnMtc2VyaWYiIGZvbnQtc2l6ZT0iMTQiIGxlbmd0aEFkanVzdD0ic3BhY2luZyIgdGV4dExlbmd0aD0iNTciIHg9IjM2Mi41IiB5PSI2MjcuMTY5NCI+aW5zdGFuY2U8L3RleHQ+PHRleHQgZmlsbD0iI0ZGRkZGRiIgZm9udC1mYW1pbHk9InNhbnMtc2VyaWYiIGZvbnQtc2l6ZT0iMTQiIGxlbmd0aEFkanVzdD0ic3BhY2luZyIgdGV4dExlbmd0aD0iNCIgeD0iNDE5LjUiIHk9IjYyNy4xNjk0Ij4mIzE2MDs8L3RleHQ+PHRleHQgZmlsbD0iI0ZGRkZGRiIgZm9udC1mYW1pbHk9InNhbnMtc2VyaWYiIGZvbnQtc2l6ZT0iMTQiIGxlbmd0aEFkanVzdD0ic3BhY2luZyIgdGV4dExlbmd0aD0iMjAiIHg9IjQyMy41IiB5PSI2MjcuMTY5NCI+Zm9yPC90ZXh0Pjx0ZXh0IGZpbGw9IiNGRkZGRkYiIGZvbnQtZmFtaWx5PSJzYW5zLXNlcmlmIiBmb250LXNpemU9IjE0IiBsZW5ndGhBZGp1c3Q9InNwYWNpbmciIHRleHRMZW5ndGg9IjgxIiB4PSIzMjIuNSIgeT0iNjQzLjY1NzciPnJlZHVuZGFuY3k8L3RleHQ+PC9nPjwhLS1lbnRpdHkgZGF0YWJhc2UtLT48ZyBpZD0iZWxlbV9kYXRhYmFzZSI+PHBhdGggZD0iTTE1MS41LDg0Ny42MDgzIEMxNTEuNSw4MzcuNjA4MyAyNTAsODM3LjYwODMgMjUwLDgzNy42MDgzIEMyNTAsODM3LjYwODMgMzQ4LjUsODM3LjYwODMgMzQ4LjUsODQ3LjYwODMgTDM0OC41LDEwMDEuMTgyNSBDMzQ4LjUsMTAxMS4xODI1IDI1MCwxMDExLjE4MjUgMjUwLDEwMTEuMTgyNSBDMjUwLDEwMTEuMTgyNSAxNTEuNSwxMDExLjE4MjUgMTUxLjUsMTAwMS4xODI1IEwxNTEuNSw4NDcuNjA4MyAiIGZpbGw9IiM0MzhERDUiIHN0eWxlPSJzdHJva2U6IzNDN0ZDMDtzdHJva2Utd2lkdGg6MC41OyIvPjxwYXRoIGQ9Ik0xNTEuNSw4NDcuNjA4MyBDMTUxLjUsODU3LjYwODMgMjUwLDg1Ny42MDgzIDI1MCw4NTcuNjA4MyBDMjUwLDg1Ny42MDgzIDM0OC41LDg1Ny42MDgzIDM0OC41LDg0Ny42MDgzICIgZmlsbD0ibm9uZSIgc3R5bGU9InN0cm9rZTojM0M3RkMwO3N0cm9rZS13aWR0aDowLjU7Ii8+PHRleHQgZmlsbD0iI0ZGRkZGRiIgZm9udC1mYW1pbHk9InNhbnMtc2VyaWYiIGZvbnQtc2l6ZT0iMTIiIGZvbnQtc3R5bGU9Iml0YWxpYyIgbGVuZ3RoQWRqdXN0PSJzcGFjaW5nIiB0ZXh0TGVuZ3RoPSI2NSIgeD0iMjE3LjUiIHk9Ijg3My4yMDk4Ij4mIzE3MTtjb250YWluZXImIzE4Nzs8L3RleHQ+PGltYWdlIGhlaWdodD0iNDgiIHdpZHRoPSI0OCIgeD0iMjI2IiB4bGluazpocmVmPSJkYXRhOmltYWdlL3BuZztiYXNlNjQsaVZCT1J3MEtHZ29BQUFBTlNVaEVVZ0FBQURBQUFBQXdDQVlBQUFCWEF2bUhBQUFETjBsRVFWUjRYdFdYc1lwVk1SQ0c5OTIwOXdWOEFGL0FCN0N6MGNwSzdDeTJzTnpPU3V5RWJTeEVWaEFXWkdGQlVGUlFCT0hLdC9BdllmNU1NdmZ1MlNLQmozdlBmM09TbWNsTWtudDA1OG1IbzVVeFlUVk1XQTBUVnNPRTFUQmhOVXhZRFJOdW0zdlBQdDU5K09wODkvVDF4VFU4bzhlK0ZVd1k4ZWpreSs3MC9OZnU1NTkvVjlBdXZ2KzkwcDYvdmR3OWVQbjVsSDRZZFhiNSsrcDNOZnJUbDhadkorKy9YY1A3TkQ1eEpzNDd3b1FlUklkSm1RQW43ci80OUZnNjM5R08zMzI5TnJCbkNQMXdUQUhnblRnUEdtTzhPZnRodjJXWTBJTkJpWERVSTlWK09FZGZuSTYvQVE0UXNLajNNQ0ZDMUNvUlVUcEVQVU9ybXIxVEhjK0VDSkZTYm1kZ0RHa1I5UW80UVpDaXpwaWtZOVFqSmh3eUNHbVRwY01NYWdQblZWY3Q2TFBkeVlRV0lsL0pSUXB6dGtvakNFQXZYU3JCTTZHbDZrQmxvZ3dpekR5TTBVYTd1dm9tdEZRY1VQN3JqS0R4UEVzcHhxYSsydk9oWGNYSzNHQkNTNlU0eVYwbVp6SzJSeUFsc3VJVTJuSkpIY2FnZjFzSFdWcEZUSWpNQ2ttVDZ4a0hXSW5aOXF2MDBJRVg1OUdoR2QrTG1CRHBuYW90MFlGV0o4cFJGekcvWjg4WkprVEk1ZEhwbWprQUl5TmloTnUrcXFmNFRnOFRJa3FKcUl0UnNZMGNpQ25XOW8zT2pUQ2h4OGlRek1IS050Z2VZUHF1Z3kzMnpUQ2h4NmdPc3VXbWY3WXlndFRVS2xBdkdNL3pLR1VqSnZRWWJXbmF6Nk5PLzRvaFJKc3grTVRwZmFJUEp2U1lMV3Z2d2hlM3hReHFnZmZiUDBheHp3Z1RNa2lIYUtSUTVQUTdhVFU2QXlLTURiMlZuR0ZDUnR3MUlyb095QkQ2VmxZQWNKaW02T3QrbE5WZGl3a2oybDJqQldQbG5JekJrYXgvaS9LZm1sRVFhR2kwMmZzbWpPaXRBZ2NkeGhJMWJhbnFVeWxrM204dmZveWovOGF6Q3lHWU1BTmpaUlNmbWtoUjF3Vk9rWjA1Z0pNMDNVeHBCQ0NydDRnSk00Z1Foc3BnbnBsUWptaHZ4NWpXMlF5ZHVveFRyWmtXRXc2RjlGRTZzQW9ZRTlPamh3NndxRmN4WVVzcURyQ1NVZHNIRTdaazVrRGxEOU1NRTdhRS9CODVNTHJKVmpGaFM2aUY3QTRGKzU3WVBVellrdXlxTFNybnhBd1R0bVNXNDVXVGVvWUpXME9LeERRaTkxbVpxQitDQ2JjQnhoSnRQblhpM2pSMWhBbTNCYWxDVGR3MFpTSW1ySVlKcTJIQ2FwaXdHaWFzaGdtcjhSOWEyQ3pROEd1NUhnQUFBQUJKUlU1RXJrSmdnZz09IiB5PSI4NzUuNzQxMSIvPjx0ZXh0IGZpbGw9IiNGRkZGRkYiIGZvbnQtZmFtaWx5PSJzYW5zLXNlcmlmIiBmb250LXNpemU9IjE2IiBmb250LXdlaWdodD0iYm9sZCIgbGVuZ3RoQWRqdXN0PSJzcGFjaW5nIiB0ZXh0TGVuZ3RoPSI2MyIgeD0iMTc4LjUiIHk9IjkzOS4yMDk4Ij5QcmltYXJ5PC90ZXh0Pjx0ZXh0IGZpbGw9IiNGRkZGRkYiIGZvbnQtZmFtaWx5PSJzYW5zLXNlcmlmIiBmb250LXNpemU9IjE2IiBmb250LXdlaWdodD0iYm9sZCIgbGVuZ3RoQWRqdXN0PSJzcGFjaW5nIiB0ZXh0TGVuZ3RoPSI1IiB4PSIyNDEuNSIgeT0iOTM5LjIwOTgiPiYjMTYwOzwvdGV4dD48dGV4dCBmaWxsPSIjRkZGRkZGIiBmb250LWZhbWlseT0ic2Fucy1zZXJpZiIgZm9udC1zaXplPSIxNiIgZm9udC13ZWlnaHQ9ImJvbGQiIGxlbmd0aEFkanVzdD0ic3BhY2luZyIgdGV4dExlbmd0aD0iNzUiIHg9IjI0Ni41IiB5PSI5MzkuMjA5OCI+RGF0YWJhc2U8L3RleHQ+PHRleHQgZmlsbD0iI0ZGRkZGRiIgZm9udC1mYW1pbHk9InNhbnMtc2VyaWYiIGZvbnQtc2l6ZT0iMTIiIGZvbnQtc3R5bGU9Iml0YWxpYyIgbGVuZ3RoQWRqdXN0PSJzcGFjaW5nIiB0ZXh0TGVuZ3RoPSI3MiIgeD0iMjE0IiB5PSI5NTQuMTg2NCI+W1Bvc3RncmVTUUxdPC90ZXh0Pjx0ZXh0IGZpbGw9IiNGRkZGRkYiIGZvbnQtZmFtaWx5PSJzYW5zLXNlcmlmIiBmb250LXNpemU9IjE0IiBsZW5ndGhBZGp1c3Q9InNwYWNpbmciIHRleHRMZW5ndGg9IjQiIHg9IjI0OCIgeT0iOTcwLjI1MjgiPiYjMTYwOzwvdGV4dD48dGV4dCBmaWxsPSIjRkZGRkZGIiBmb250LWZhbWlseT0ic2Fucy1zZXJpZiIgZm9udC1zaXplPSIxNCIgbGVuZ3RoQWRqdXN0PSJzcGFjaW5nIiB0ZXh0TGVuZ3RoPSI0MyIgeD0iMTYxLjUiIHk9Ijk4Ni43NDExIj5TdG9yZXM8L3RleHQ+PHRleHQgZmlsbD0iI0ZGRkZGRiIgZm9udC1mYW1pbHk9InNhbnMtc2VyaWYiIGZvbnQtc2l6ZT0iMTQiIGxlbmd0aEFkanVzdD0ic3BhY2luZyIgdGV4dExlbmd0aD0iNCIgeD0iMjA0LjUiIHk9Ijk4Ni43NDExIj4mIzE2MDs8L3RleHQ+PHRleHQgZmlsbD0iI0ZGRkZGRiIgZm9udC1mYW1pbHk9InNhbnMtc2VyaWYiIGZvbnQtc2l6ZT0iMTQiIGxlbmd0aEFkanVzdD0ic3BhY2luZyIgdGV4dExlbmd0aD0iMTYiIHg9IjIwOC41IiB5PSI5ODYuNzQxMSI+YWxsPC90ZXh0Pjx0ZXh0IGZpbGw9IiNGRkZGRkYiIGZvbnQtZmFtaWx5PSJzYW5zLXNlcmlmIiBmb250LXNpemU9IjE0IiBsZW5ndGhBZGp1c3Q9InNwYWNpbmciIHRleHRMZW5ndGg9IjQiIHg9IjIyNC41IiB5PSI5ODYuNzQxMSI+JiMxNjA7PC90ZXh0Pjx0ZXh0IGZpbGw9IiNGRkZGRkYiIGZvbnQtZmFtaWx5PSJzYW5zLXNlcmlmIiBmb250LXNpemU9IjE0IiBsZW5ndGhBZGp1c3Q9InNwYWNpbmciIHRleHRMZW5ndGg9Ijc2IiB4PSIyMjguNSIgeT0iOTg2Ljc0MTEiPmFwcGxpY2F0aW9uPC90ZXh0Pjx0ZXh0IGZpbGw9IiNGRkZGRkYiIGZvbnQtZmFtaWx5PSJzYW5zLXNlcmlmIiBmb250LXNpemU9IjE0IiBsZW5ndGhBZGp1c3Q9InNwYWNpbmciIHRleHRMZW5ndGg9IjQiIHg9IjMwNC41IiB5PSI5ODYuNzQxMSI+JiMxNjA7PC90ZXh0Pjx0ZXh0IGZpbGw9IiNGRkZGRkYiIGZvbnQtZmFtaWx5PSJzYW5zLXNlcmlmIiBmb250LXNpemU9IjE0IiBsZW5ndGhBZGp1c3Q9InNwYWNpbmciIHRleHRMZW5ndGg9IjMwIiB4PSIzMDguNSIgeT0iOTg2Ljc0MTEiPmRhdGE8L3RleHQ+PHRleHQgZmlsbD0iI0ZGRkZGRiIgZm9udC1mYW1pbHk9InNhbnMtc2VyaWYiIGZvbnQtc2l6ZT0iMTQiIGxlbmd0aEFkanVzdD0ic3BhY2luZyIgdGV4dExlbmd0aD0iMjkiIHg9IjE3OSIgeT0iMTAwMy4yMjk0Ij53aXRoPC90ZXh0Pjx0ZXh0IGZpbGw9IiNGRkZGRkYiIGZvbnQtZmFtaWx5PSJzYW5zLXNlcmlmIiBmb250LXNpemU9IjE0IiBsZW5ndGhBZGp1c3Q9InNwYWNpbmciIHRleHRMZW5ndGg9IjQiIHg9IjIwOCIgeT0iMTAwMy4yMjk0Ij4mIzE2MDs8L3RleHQ+PHRleHQgZmlsbD0iI0ZGRkZGRiIgZm9udC1mYW1pbHk9InNhbnMtc2VyaWYiIGZvbnQtc2l6ZT0iMTQiIGxlbmd0aEFkanVzdD0ic3BhY2luZyIgdGV4dExlbmd0aD0iMzQiIHg9IjIxMiIgeT0iMTAwMy4yMjk0Ij5BQ0lEPC90ZXh0Pjx0ZXh0IGZpbGw9IiNGRkZGRkYiIGZvbnQtZmFtaWx5PSJzYW5zLXNlcmlmIiBmb250LXNpemU9IjE0IiBsZW5ndGhBZGp1c3Q9InNwYWNpbmciIHRleHRMZW5ndGg9IjQiIHg9IjI0NiIgeT0iMTAwMy4yMjk0Ij4mIzE2MDs8L3RleHQ+PHRleHQgZmlsbD0iI0ZGRkZGRiIgZm9udC1mYW1pbHk9InNhbnMtc2VyaWYiIGZvbnQtc2l6ZT0iMTQiIGxlbmd0aEFkanVzdD0ic3BhY2luZyIgdGV4dExlbmd0aD0iNzEiIHg9IjI1MCIgeT0iMTAwMy4yMjk0Ij5wcm9wZXJ0aWVzPC90ZXh0PjwvZz48IS0tZW50aXR5IHVzZXJzLS0+PGcgaWQ9ImVsZW1fdXNlcnMiPjxyZWN0IGZpbGw9IiMwODQyN0IiIGhlaWdodD0iMTUwLjQ0MTQiIHJ4PSIyLjUiIHJ5PSIyLjUiIHN0eWxlPSJzdHJva2U6IzA3M0I2RjtzdHJva2Utd2lkdGg6MC41OyIgd2lkdGg9IjE4MyIgeD0iNzY0LjUiIHk9IjQ5MC44NTgzIi8+PHRleHQgZmlsbD0iI0ZGRkZGRiIgZm9udC1mYW1pbHk9InNhbnMtc2VyaWYiIGZvbnQtc2l6ZT0iMTIiIGZvbnQtc3R5bGU9Iml0YWxpYyIgbGVuZ3RoQWRqdXN0PSJzcGFjaW5nIiB0ZXh0TGVuZ3RoPSI1MiIgeD0iODMwIiB5PSI1MTIuNDU5OCI+JiMxNzE7cGVyc29uJiMxODc7PC90ZXh0PjxpbWFnZSBoZWlnaHQ9IjQ4IiB3aWR0aD0iNDgiIHg9IjgzMiIgeGxpbms6aHJlZj0iZGF0YTppbWFnZS9wbmc7YmFzZTY0LGlWQk9SdzBLR2dvQUFBQU5TVWhFVWdBQUFEQUFBQUF3Q0FZQUFBQlhBdm1IQUFBQ28wbEVRVlI0WHUyWHYycVZRUkRGVStZUmZBUmZJYTNZcFBFQnpBTUkxbmFwZ28yZ2xtbENzTlJHc0xDeEVVd3JTV1VsZ3BXV3BraVI5Z3UvQzNQWk96TzdzN3ZmcGxqd3dJSGszTDI3ODMvMzd1MC9PdDZibVVhWWpVYVlqVWFZalVhWWpVYVlqVWFZalVhWWpVWVl4WWRIYjE0ZHZuaTNIRHc3dlh6dzVPVmovZmtvR21FTk1mVDErNHZsK3VaMjBiajYrV2ZCSWYyZHRUUkNMNG0wWjdqRytlZnZRNTB3UWc4cGx4cmpCU09kTUVJUEtZOVdqQ29uSXdpZnYvMjAvUDc3YjNNWTBhVzI5UnFJSVQzQWFiMlg3UGYxOHRkbURlZCsvUFpqSWNONm5kQUlrQlI3OEE3TnJhMkJuazVQVHo3b0pSdmdTTTRKSTlDTWVvTVVPaE1TclI1d2x1eURNL3J6RkY3d1hBZWlpRkpXNmZxZStoZWtmWkNMZmdxZE1kY0JhcTRFMHRteXZvUzBMT2k1Q0Y0WkdRZU96NzdvNysxQXA3TG1ZQTg2RURYRFFOdnFPaERWSXFsdVdaK0Q3aVVvVTg5RDd1NHdBc3hGd3pzVVJsblRJUHBlUFZNaW5oTU1DcjFXYUFRaEIyQVlubU40T2pFOHR2UkN0QmRseWJrd3V2Q01zSVpSSnVnZnJ4SFgwQWlRNkhNUWtVcnBwVjJUTlVTUWpHQXc2YStKcE5BN3QrUzBPVHk2bUtqUnFBUjZTSm1XUU44UUdQMjluWCs4QnRKZ285cG90ckMyaDdRVDJ6K2krZ1U0bUpZUm01RXhlVXJMbzArWEd5WEErRTJ6eTE2VVZ1dGxCbHdIb2lkQk92cHk0NjRYNlhpdUNXUmFBVnNISW9PazdqRmVmellDbEpEWUV2VmhlcGxXT1pCZUpDMi92Rm9oOVIyOWlGMEhTaVVrS2F0Sjd4cWs3Nk1hZTNZY0tEVlFUWlpHUWFLYkc2djZPYi85QTVJNm9weFMwdHI3YUd1RlBOcm9OYzhXZlpudU9GRGlmVFd2UnVuaDV0RUlPVWFOTlFyL0hTaFJIM1lmeVAzbXlORUlKVVkvK0VlZzlQTDBhSVNJVEFOR0dUTjdKQ21kVnVPaEVXYWpFV2FqRVdhakVXYWpFV2FqRVdhakVXYWpFV2FqRVdiakhRMXZibUxoeTlCR0FBQUFBRWxGVGtTdVFtQ0MiIHk9IjUxNC45OTExIi8+PHRleHQgZmlsbD0iI0ZGRkZGRiIgZm9udC1mYW1pbHk9InNhbnMtc2VyaWYiIGZvbnQtc2l6ZT0iMTYiIGZvbnQtd2VpZ2h0PSJib2xkIiBsZW5ndGhBZGp1c3Q9InNwYWNpbmciIHRleHRMZW5ndGg9IjQ2IiB4PSI4MzMiIHk9IjU3OC40NTk4Ij5Vc2VyczwvdGV4dD48dGV4dCBmaWxsPSIjRkZGRkZGIiBmb250LWZhbWlseT0ic2Fucy1zZXJpZiIgZm9udC1zaXplPSIxNCIgbGVuZ3RoQWRqdXN0PSJzcGFjaW5nIiB0ZXh0TGVuZ3RoPSI0IiB4PSI4NTQiIHk9IjU5NS4zNyI+JiMxNjA7PC90ZXh0Pjx0ZXh0IGZpbGw9IiNGRkZGRkYiIGZvbnQtZmFtaWx5PSJzYW5zLXNlcmlmIiBmb250LXNpemU9IjE0IiBsZW5ndGhBZGp1c3Q9InNwYWNpbmciIHRleHRMZW5ndGg9IjI2IiB4PSI3NzQuNSIgeT0iNjExLjg1ODMiPkVuZDwvdGV4dD48dGV4dCBmaWxsPSIjRkZGRkZGIiBmb250LWZhbWlseT0ic2Fucy1zZXJpZiIgZm9udC1zaXplPSIxNCIgbGVuZ3RoQWRqdXN0PSJzcGFjaW5nIiB0ZXh0TGVuZ3RoPSI0IiB4PSI4MDAuNSIgeT0iNjExLjg1ODMiPiYjMTYwOzwvdGV4dD48dGV4dCBmaWxsPSIjRkZGRkZGIiBmb250LWZhbWlseT0ic2Fucy1zZXJpZiIgZm9udC1zaXplPSIxNCIgbGVuZ3RoQWRqdXN0PSJzcGFjaW5nIiB0ZXh0TGVuZ3RoPSIzNyIgeD0iODA0LjUiIHk9IjYxMS44NTgzIj51c2VyczwvdGV4dD48dGV4dCBmaWxsPSIjRkZGRkZGIiBmb250LWZhbWlseT0ic2Fucy1zZXJpZiIgZm9udC1zaXplPSIxNCIgbGVuZ3RoQWRqdXN0PSJzcGFjaW5nIiB0ZXh0TGVuZ3RoPSI0IiB4PSI4NDEuNSIgeT0iNjExLjg1ODMiPiYjMTYwOzwvdGV4dD48dGV4dCBmaWxsPSIjRkZGRkZGIiBmb250LWZhbWlseT0ic2Fucy1zZXJpZiIgZm9udC1zaXplPSIxNCIgbGVuZ3RoQWRqdXN0PSJzcGFjaW5nIiB0ZXh0TGVuZ3RoPSI2NiIgeD0iODQ1LjUiIHk9IjYxMS44NTgzIj5hY2Nlc3Npbmc8L3RleHQ+PHRleHQgZmlsbD0iI0ZGRkZGRiIgZm9udC1mYW1pbHk9InNhbnMtc2VyaWYiIGZvbnQtc2l6ZT0iMTQiIGxlbmd0aEFkanVzdD0ic3BhY2luZyIgdGV4dExlbmd0aD0iNCIgeD0iOTExLjUiIHk9IjYxMS44NTgzIj4mIzE2MDs8L3RleHQ+PHRleHQgZmlsbD0iI0ZGRkZGRiIgZm9udC1mYW1pbHk9InNhbnMtc2VyaWYiIGZvbnQtc2l6ZT0iMTQiIGxlbmd0aEFkanVzdD0ic3BhY2luZyIgdGV4dExlbmd0aD0iMjIiIHg9IjkxNS41IiB5PSI2MTEuODU4MyI+dGhlPC90ZXh0Pjx0ZXh0IGZpbGw9IiNGRkZGRkYiIGZvbnQtZmFtaWx5PSJzYW5zLXNlcmlmIiBmb250LXNpemU9IjE0IiBsZW5ndGhBZGp1c3Q9InNwYWNpbmciIHRleHRMZW5ndGg9Ijc2IiB4PSI4MTgiIHk9IjYyOC4zNDY2Ij5hcHBsaWNhdGlvbjwvdGV4dD48L2c+PGcgaWQ9ImVsZW1fR01OMTgiPjxwYXRoIGQ9Ik01MDcuNSwxNTUuMDg4MyBMNTA3LjUsMjAyLjAxODMgTDQ3Mi45MywyMDYuMDE4MyBMNTA3LjUsMjEwLjAxODMgTDUwNy41LDI1Ni45NTE2IEEwLDAgMCAwIDAgNTA3LjUsMjU2Ljk1MTYgTDcwOC41LDI1Ni45NTE2IEEwLDAgMCAwIDAgNzA4LjUsMjU2Ljk1MTYgTDcwOC41LDE2NS4wODgzIEw2OTguNSwxNTUuMDg4MyBMNTA3LjUsMTU1LjA4ODMgQTAsMCAwIDAgMCA1MDcuNSwxNTUuMDg4MyAiIGZpbGw9IiNGRUZGREQiIHN0eWxlPSJzdHJva2U6IzE4MTgxODtzdHJva2Utd2lkdGg6MC41OyIvPjxwYXRoIGQ9Ik02OTguNSwxNTUuMDg4MyBMNjk4LjUsMTY1LjA4ODMgTDcwOC41LDE2NS4wODgzIEw2OTguNSwxNTUuMDg4MyAiIGZpbGw9IiNGRUZGREQiIHN0eWxlPSJzdHJva2U6IzE4MTgxODtzdHJva2Utd2lkdGg6MC41OyIvPjx0ZXh0IGZpbGw9IiMwMDAwMDAiIGZvbnQtZmFtaWx5PSJzYW5zLXNlcmlmIiBmb250LXNpemU9IjEzIiBmb250LXdlaWdodD0iYm9sZCIgbGVuZ3RoQWRqdXN0PSJzcGFjaW5nIiB0ZXh0TGVuZ3RoPSIzMyIgeD0iNTE1IiB5PSIxNzIuNjU2NiI+TG9hZDwvdGV4dD48dGV4dCBmaWxsPSIjMDAwMDAwIiBmb250LWZhbWlseT0ic2Fucy1zZXJpZiIgZm9udC1zaXplPSIxMyIgZm9udC13ZWlnaHQ9ImJvbGQiIGxlbmd0aEFkanVzdD0ic3BhY2luZyIgdGV4dExlbmd0aD0iNCIgeD0iNTQ4IiB5PSIxNzIuNjU2NiI+JiMxNjA7PC90ZXh0Pjx0ZXh0IGZpbGw9IiMwMDAwMDAiIGZvbnQtZmFtaWx5PSJzYW5zLXNlcmlmIiBmb250LXNpemU9IjEzIiBmb250LXdlaWdodD0iYm9sZCIgbGVuZ3RoQWRqdXN0PSJzcGFjaW5nIiB0ZXh0TGVuZ3RoPSI2NiIgeD0iNTUyIiB5PSIxNzIuNjU2NiI+QmFsYW5jaW5nPC90ZXh0Pjx0ZXh0IGZpbGw9IiMwMDAwMDAiIGZvbnQtZmFtaWx5PSJzYW5zLXNlcmlmIiBmb250LXNpemU9IjEzIiBmb250LXdlaWdodD0iYm9sZCIgbGVuZ3RoQWRqdXN0PSJzcGFjaW5nIiB0ZXh0TGVuZ3RoPSI0IiB4PSI2MTgiIHk9IjE3Mi42NTY2Ij4mIzE2MDs8L3RleHQ+PHRleHQgZmlsbD0iIzAwMDAwMCIgZm9udC1mYW1pbHk9InNhbnMtc2VyaWYiIGZvbnQtc2l6ZT0iMTMiIGZvbnQtd2VpZ2h0PSJib2xkIiBsZW5ndGhBZGp1c3Q9InNwYWNpbmciIHRleHRMZW5ndGg9IjcwIiB4PSI2MjIiIHk9IjE3Mi42NTY2Ij5TdHJhdGVnaWVzOjwvdGV4dD48dGV4dCBmaWxsPSIjMDAwMDAwIiBmb250LWZhbWlseT0ic2Fucy1zZXJpZiIgZm9udC1zaXplPSIxMyIgbGVuZ3RoQWRqdXN0PSJzcGFjaW5nIiB0ZXh0TGVuZ3RoPSI3IiB4PSI1NTgiIHk9IjE4Ny45NjcyIj4mIzgyMjY7PC90ZXh0Pjx0ZXh0IGZpbGw9IiMwMDAwMDAiIGZvbnQtZmFtaWx5PSJzYW5zLXNlcmlmIiBmb250LXNpemU9IjEzIiBsZW5ndGhBZGp1c3Q9InNwYWNpbmciIHRleHRMZW5ndGg9IjQiIHg9IjU2NSIgeT0iMTg3Ljk2NzIiPiYjMTYwOzwvdGV4dD48dGV4dCBmaWxsPSIjMDAwMDAwIiBmb250LWZhbWlseT0ic2Fucy1zZXJpZiIgZm9udC1zaXplPSIxMyIgbGVuZ3RoQWRqdXN0PSJzcGFjaW5nIiB0ZXh0TGVuZ3RoPSI0MCIgeD0iNTY5IiB5PSIxODcuOTY3MiI+Um91bmQ8L3RleHQ+PHRleHQgZmlsbD0iIzAwMDAwMCIgZm9udC1mYW1pbHk9InNhbnMtc2VyaWYiIGZvbnQtc2l6ZT0iMTMiIGxlbmd0aEFkanVzdD0ic3BhY2luZyIgdGV4dExlbmd0aD0iNCIgeD0iNjA5IiB5PSIxODcuOTY3MiI+JiMxNjA7PC90ZXh0Pjx0ZXh0IGZpbGw9IiMwMDAwMDAiIGZvbnQtZmFtaWx5PSJzYW5zLXNlcmlmIiBmb250LXNpemU9IjEzIiBsZW5ndGhBZGp1c3Q9InNwYWNpbmciIHRleHRMZW5ndGg9IjM2IiB4PSI2MTMiIHk9IjE4Ny45NjcyIj5Sb2JpbjwvdGV4dD48dGV4dCBmaWxsPSIjMDAwMDAwIiBmb250LWZhbWlseT0ic2Fucy1zZXJpZiIgZm9udC1zaXplPSIxMyIgbGVuZ3RoQWRqdXN0PSJzcGFjaW5nIiB0ZXh0TGVuZ3RoPSI3IiB4PSI1NDAiIHk9IjIwMy4yNzc3Ij4mIzgyMjY7PC90ZXh0Pjx0ZXh0IGZpbGw9IiMwMDAwMDAiIGZvbnQtZmFtaWx5PSJzYW5zLXNlcmlmIiBmb250LXNpemU9IjEzIiBsZW5ndGhBZGp1c3Q9InNwYWNpbmciIHRleHRMZW5ndGg9IjQiIHg9IjU0NyIgeT0iMjAzLjI3NzciPiYjMTYwOzwvdGV4dD48dGV4dCBmaWxsPSIjMDAwMDAwIiBmb250LWZhbWlseT0ic2Fucy1zZXJpZiIgZm9udC1zaXplPSIxMyIgbGVuZ3RoQWRqdXN0PSJzcGFjaW5nIiB0ZXh0TGVuZ3RoPSIzMyIgeD0iNTUxIiB5PSIyMDMuMjc3NyI+TGVhc3Q8L3RleHQ+PHRleHQgZmlsbD0iIzAwMDAwMCIgZm9udC1mYW1pbHk9InNhbnMtc2VyaWYiIGZvbnQtc2l6ZT0iMTMiIGxlbmd0aEFkanVzdD0ic3BhY2luZyIgdGV4dExlbmd0aD0iNCIgeD0iNTg0IiB5PSIyMDMuMjc3NyI+JiMxNjA7PC90ZXh0Pjx0ZXh0IGZpbGw9IiMwMDAwMDAiIGZvbnQtZmFtaWx5PSJzYW5zLXNlcmlmIiBmb250LXNpemU9IjEzIiBsZW5ndGhBZGp1c3Q9InNwYWNpbmciIHRleHRMZW5ndGg9Ijc5IiB4PSI1ODgiIHk9IjIwMy4yNzc3Ij5Db25uZWN0aW9uczwvdGV4dD48dGV4dCBmaWxsPSIjMDAwMDAwIiBmb250LWZhbWlseT0ic2Fucy1zZXJpZiIgZm9udC1zaXplPSIxMyIgbGVuZ3RoQWRqdXN0PSJzcGFjaW5nIiB0ZXh0TGVuZ3RoPSI3IiB4PSI1NzQuNSIgeT0iMjE4LjU4ODMiPiYjODIyNjs8L3RleHQ+PHRleHQgZmlsbD0iIzAwMDAwMCIgZm9udC1mYW1pbHk9InNhbnMtc2VyaWYiIGZvbnQtc2l6ZT0iMTMiIGxlbmd0aEFkanVzdD0ic3BhY2luZyIgdGV4dExlbmd0aD0iNCIgeD0iNTgxLjUiIHk9IjIxOC41ODgzIj4mIzE2MDs8L3RleHQ+PHRleHQgZmlsbD0iIzAwMDAwMCIgZm9udC1mYW1pbHk9InNhbnMtc2VyaWYiIGZvbnQtc2l6ZT0iMTMiIGxlbmd0aEFkanVzdD0ic3BhY2luZyIgdGV4dExlbmd0aD0iMTEiIHg9IjU4NS41IiB5PSIyMTguNTg4MyI+SVA8L3RleHQ+PHRleHQgZmlsbD0iIzAwMDAwMCIgZm9udC1mYW1pbHk9InNhbnMtc2VyaWYiIGZvbnQtc2l6ZT0iMTMiIGxlbmd0aEFkanVzdD0ic3BhY2luZyIgdGV4dExlbmd0aD0iNCIgeD0iNTk2LjUiIHk9IjIxOC41ODgzIj4mIzE2MDs8L3RleHQ+PHRleHQgZmlsbD0iIzAwMDAwMCIgZm9udC1mYW1pbHk9InNhbnMtc2VyaWYiIGZvbnQtc2l6ZT0iMTMiIGxlbmd0aEFkanVzdD0ic3BhY2luZyIgdGV4dExlbmd0aD0iMzIiIHg9IjYwMC41IiB5PSIyMTguNTg4MyI+SGFzaDwvdGV4dD48dGV4dCBmaWxsPSIjMDAwMDAwIiBmb250LWZhbWlseT0ic2Fucy1zZXJpZiIgZm9udC1zaXplPSIxMyIgbGVuZ3RoQWRqdXN0PSJzcGFjaW5nIiB0ZXh0TGVuZ3RoPSI3IiB4PSI1NTIuNSIgeT0iMjMzLjg5ODgiPiYjODIyNjs8L3RleHQ+PHRleHQgZmlsbD0iIzAwMDAwMCIgZm9udC1mYW1pbHk9InNhbnMtc2VyaWYiIGZvbnQtc2l6ZT0iMTMiIGxlbmd0aEFkanVzdD0ic3BhY2luZyIgdGV4dExlbmd0aD0iNCIgeD0iNTU5LjUiIHk9IjIzMy44OTg4Ij4mIzE2MDs8L3RleHQ+PHRleHQgZmlsbD0iIzAwMDAwMCIgZm9udC1mYW1pbHk9InNhbnMtc2VyaWYiIGZvbnQtc2l6ZT0iMTMiIGxlbmd0aEFkanVzdD0ic3BhY2luZyIgdGV4dExlbmd0aD0iNDEiIHg9IjU2My41IiB5PSIyMzMuODk4OCI+SGVhbHRoPC90ZXh0Pjx0ZXh0IGZpbGw9IiMwMDAwMDAiIGZvbnQtZmFtaWx5PSJzYW5zLXNlcmlmIiBmb250LXNpemU9IjEzIiBsZW5ndGhBZGp1c3Q9InNwYWNpbmciIHRleHRMZW5ndGg9IjQiIHg9IjYwNC41IiB5PSIyMzMuODk4OCI+JiMxNjA7PC90ZXh0Pjx0ZXh0IGZpbGw9IiMwMDAwMDAiIGZvbnQtZmFtaWx5PSJzYW5zLXNlcmlmIiBmb250LXNpemU9IjEzIiBsZW5ndGhBZGp1c3Q9InNwYWNpbmciIHRleHRMZW5ndGg9IjQ2IiB4PSI2MDguNSIgeT0iMjMzLjg5ODgiPkNoZWNrczwvdGV4dD48dGV4dCBmaWxsPSIjMDAwMDAwIiBmb250LWZhbWlseT0ic2Fucy1zZXJpZiIgZm9udC1zaXplPSIxMyIgbGVuZ3RoQWRqdXN0PSJzcGFjaW5nIiB0ZXh0TGVuZ3RoPSI3IiB4PSI1MTMuNSIgeT0iMjQ5LjIwOTQiPiYjODIyNjs8L3RleHQ+PHRleHQgZmlsbD0iIzAwMDAwMCIgZm9udC1mYW1pbHk9InNhbnMtc2VyaWYiIGZvbnQtc2l6ZT0iMTMiIGxlbmd0aEFkanVzdD0ic3BhY2luZyIgdGV4dExlbmd0aD0iNCIgeD0iNTIwLjUiIHk9IjI0OS4yMDk0Ij4mIzE2MDs8L3RleHQ+PHRleHQgZmlsbD0iIzAwMDAwMCIgZm9udC1mYW1pbHk9InNhbnMtc2VyaWYiIGZvbnQtc2l6ZT0iMTMiIGxlbmd0aEFkanVzdD0ic3BhY2luZyIgdGV4dExlbmd0aD0iNDgiIHg9IjUyNC41IiB5PSIyNDkuMjA5NCI+U2Vzc2lvbjwvdGV4dD48dGV4dCBmaWxsPSIjMDAwMDAwIiBmb250LWZhbWlseT0ic2Fucy1zZXJpZiIgZm9udC1zaXplPSIxMyIgbGVuZ3RoQWRqdXN0PSJzcGFjaW5nIiB0ZXh0TGVuZ3RoPSI0IiB4PSI1NzIuNSIgeT0iMjQ5LjIwOTQiPiYjMTYwOzwvdGV4dD48dGV4dCBmaWxsPSIjMDAwMDAwIiBmb250LWZhbWlseT0ic2Fucy1zZXJpZiIgZm9udC1zaXplPSIxMyIgbGVuZ3RoQWRqdXN0PSJzcGFjaW5nIiB0ZXh0TGVuZ3RoPSI0NyIgeD0iNTc2LjUiIHk9IjI0OS4yMDk0Ij5BZmZpbml0eTwvdGV4dD48dGV4dCBmaWxsPSIjMDAwMDAwIiBmb250LWZhbWlseT0ic2Fucy1zZXJpZiIgZm9udC1zaXplPSIxMyIgbGVuZ3RoQWRqdXN0PSJzcGFjaW5nIiB0ZXh0TGVuZ3RoPSI0IiB4PSI2MjMuNSIgeT0iMjQ5LjIwOTQiPiYjMTYwOzwvdGV4dD48dGV4dCBmaWxsPSIjMDAwMDAwIiBmb250LWZhbWlseT0ic2Fucy1zZXJpZiIgZm9udC1zaXplPSIxMyIgbGVuZ3RoQWRqdXN0PSJzcGFjaW5nIiB0ZXh0TGVuZ3RoPSIxMyIgeD0iNjI3LjUiIHk9IjI0OS4yMDk0Ij4oaWY8L3RleHQ+PHRleHQgZmlsbD0iIzAwMDAwMCIgZm9udC1mYW1pbHk9InNhbnMtc2VyaWYiIGZvbnQtc2l6ZT0iMTMiIGxlbmd0aEFkanVzdD0ic3BhY2luZyIgdGV4dExlbmd0aD0iNCIgeD0iNjQwLjUiIHk9IjI0OS4yMDk0Ij4mIzE2MDs8L3RleHQ+PHRleHQgZmlsbD0iIzAwMDAwMCIgZm9udC1mYW1pbHk9InNhbnMtc2VyaWYiIGZvbnQtc2l6ZT0iMTMiIGxlbmd0aEFkanVzdD0ic3BhY2luZyIgdGV4dExlbmd0aD0iNDkiIHg9IjY0NC41IiB5PSIyNDkuMjA5NCI+bmVlZGVkKTwvdGV4dD48L2c+PGcgaWQ9ImVsZW1fR01OMjEiPjxwYXRoIGQ9Ik01MjQuNSw1MTUuMTQ4MyBMNTI0LjUsNjE3LjAxMTYgTDcyOS41LDYxNy4wMTE2IEw3MjkuNSw1MjUuMTQ4MyBMNzE5LjUsNTE1LjE0ODMgTDUyNC41LDUxNS4xNDgzICIgZmlsbD0iI0ZFRkZERCIgc3R5bGU9InN0cm9rZTojMTgxODE4O3N0cm9rZS13aWR0aDowLjU7Ii8+PHBhdGggZD0iTTcxOS41LDUxNS4xNDgzIEw3MTkuNSw1MjUuMTQ4MyBMNzI5LjUsNTI1LjE0ODMgTDcxOS41LDUxNS4xNDgzICIgZmlsbD0iI0ZFRkZERCIgc3R5bGU9InN0cm9rZTojMTgxODE4O3N0cm9rZS13aWR0aDoxLjA7Ii8+PHRleHQgZmlsbD0iIzAwMDAwMCIgZm9udC1mYW1pbHk9InNhbnMtc2VyaWYiIGZvbnQtc2l6ZT0iMTMiIGZvbnQtd2VpZ2h0PSJib2xkIiBsZW5ndGhBZGp1c3Q9InNwYWNpbmciIHRleHRMZW5ndGg9Ijc3IiB4PSI1MzAuNSIgeT0iNTMyLjcxNjYiPkFwcGxpY2F0aW9uPC90ZXh0Pjx0ZXh0IGZpbGw9IiMwMDAwMDAiIGZvbnQtZmFtaWx5PSJzYW5zLXNlcmlmIiBmb250LXNpemU9IjEzIiBmb250LXdlaWdodD0iYm9sZCIgbGVuZ3RoQWRqdXN0PSJzcGFjaW5nIiB0ZXh0TGVuZ3RoPSI0IiB4PSI2MDcuNSIgeT0iNTMyLjcxNjYiPiYjMTYwOzwvdGV4dD48dGV4dCBmaWxsPSIjMDAwMDAwIiBmb250LWZhbWlseT0ic2Fucy1zZXJpZiIgZm9udC1zaXplPSIxMyIgZm9udC13ZWlnaHQ9ImJvbGQiIGxlbmd0aEFkanVzdD0ic3BhY2luZyIgdGV4dExlbmd0aD0iMTAzIiB4PSI2MTEuNSIgeT0iNTMyLjcxNjYiPkNoYXJhY3RlcmlzdGljczo8L3RleHQ+PHRleHQgZmlsbD0iIzAwMDAwMCIgZm9udC1mYW1pbHk9InNhbnMtc2VyaWYiIGZvbnQtc2l6ZT0iMTMiIGxlbmd0aEFkanVzdD0ic3BhY2luZyIgdGV4dExlbmd0aD0iNyIgeD0iNTM1LjUiIHk9IjU0OC4wMjcyIj4mIzgyMjY7PC90ZXh0Pjx0ZXh0IGZpbGw9IiMwMDAwMDAiIGZvbnQtZmFtaWx5PSJzYW5zLXNlcmlmIiBmb250LXNpemU9IjEzIiBsZW5ndGhBZGp1c3Q9InNwYWNpbmciIHRleHRMZW5ndGg9IjQiIHg9IjU0Mi41IiB5PSI1NDguMDI3MiI+JiMxNjA7PC90ZXh0Pjx0ZXh0IGZpbGw9IiMwMDAwMDAiIGZvbnQtZmFtaWx5PSJzYW5zLXNlcmlmIiBmb250LXNpemU9IjEzIiBsZW5ndGhBZGp1c3Q9InNwYWNpbmciIHRleHRMZW5ndGg9IjU2IiB4PSI1NDYuNSIgeT0iNTQ4LjAyNzIiPlN0YXRlbGVzczwvdGV4dD48dGV4dCBmaWxsPSIjMDAwMDAwIiBmb250LWZhbWlseT0ic2Fucy1zZXJpZiIgZm9udC1zaXplPSIxMyIgbGVuZ3RoQWRqdXN0PSJzcGFjaW5nIiB0ZXh0TGVuZ3RoPSI0IiB4PSI2MDIuNSIgeT0iNTQ4LjAyNzIiPiYjMTYwOzwvdGV4dD48dGV4dCBmaWxsPSIjMDAwMDAwIiBmb250LWZhbWlseT0ic2Fucy1zZXJpZiIgZm9udC1zaXplPSIxMyIgbGVuZ3RoQWRqdXN0PSJzcGFjaW5nIiB0ZXh0TGVuZ3RoPSI0MiIgeD0iNjA2LjUiIHk9IjU0OC4wMjcyIj5kZXNpZ248L3RleHQ+PHRleHQgZmlsbD0iIzAwMDAwMCIgZm9udC1mYW1pbHk9InNhbnMtc2VyaWYiIGZvbnQtc2l6ZT0iMTMiIGxlbmd0aEFkanVzdD0ic3BhY2luZyIgdGV4dExlbmd0aD0iNCIgeD0iNjQ4LjUiIHk9IjU0OC4wMjcyIj4mIzE2MDs8L3RleHQ+PHRleHQgZmlsbD0iIzAwMDAwMCIgZm9udC1mYW1pbHk9InNhbnMtc2VyaWYiIGZvbnQtc2l6ZT0iMTMiIGxlbmd0aEFkanVzdD0ic3BhY2luZyIgdGV4dExlbmd0aD0iNTciIHg9IjY1Mi41IiB5PSI1NDguMDI3MiI+cHJlZmVycmVkPC90ZXh0Pjx0ZXh0IGZpbGw9IiMwMDAwMDAiIGZvbnQtZmFtaWx5PSJzYW5zLXNlcmlmIiBmb250LXNpemU9IjEzIiBsZW5ndGhBZGp1c3Q9InNwYWNpbmciIHRleHRMZW5ndGg9IjciIHg9IjU0Ny41IiB5PSI1NjMuMzM3NyI+JiM4MjI2OzwvdGV4dD48dGV4dCBmaWxsPSIjMDAwMDAwIiBmb250LWZhbWlseT0ic2Fucy1zZXJpZiIgZm9udC1zaXplPSIxMyIgbGVuZ3RoQWRqdXN0PSJzcGFjaW5nIiB0ZXh0TGVuZ3RoPSI0IiB4PSI1NTQuNSIgeT0iNTYzLjMzNzciPiYjMTYwOzwvdGV4dD48dGV4dCBmaWxsPSIjMDAwMDAwIiBmb250LWZhbWlseT0ic2Fucy1zZXJpZiIgZm9udC1zaXplPSIxMyIgbGVuZ3RoQWRqdXN0PSJzcGFjaW5nIiB0ZXh0TGVuZ3RoPSI1NCIgeD0iNTU4LjUiIHk9IjU2My4zMzc3Ij5JZGVudGljYWw8L3RleHQ+PHRleHQgZmlsbD0iIzAwMDAwMCIgZm9udC1mYW1pbHk9InNhbnMtc2VyaWYiIGZvbnQtc2l6ZT0iMTMiIGxlbmd0aEFkanVzdD0ic3BhY2luZyIgdGV4dExlbmd0aD0iNCIgeD0iNjEyLjUiIHk9IjU2My4zMzc3Ij4mIzE2MDs8L3RleHQ+PHRleHQgZmlsbD0iIzAwMDAwMCIgZm9udC1mYW1pbHk9InNhbnMtc2VyaWYiIGZvbnQtc2l6ZT0iMTMiIGxlbmd0aEFkanVzdD0ic3BhY2luZyIgdGV4dExlbmd0aD0iODEiIHg9IjYxNi41IiB5PSI1NjMuMzM3NyI+ZGVwbG95bWVudHM8L3RleHQ+PHRleHQgZmlsbD0iIzAwMDAwMCIgZm9udC1mYW1pbHk9InNhbnMtc2VyaWYiIGZvbnQtc2l6ZT0iMTMiIGxlbmd0aEFkanVzdD0ic3BhY2luZyIgdGV4dExlbmd0aD0iNyIgeD0iNTUxLjUiIHk9IjU3OC42NDgzIj4mIzgyMjY7PC90ZXh0Pjx0ZXh0IGZpbGw9IiMwMDAwMDAiIGZvbnQtZmFtaWx5PSJzYW5zLXNlcmlmIiBmb250LXNpemU9IjEzIiBsZW5ndGhBZGp1c3Q9InNwYWNpbmciIHRleHRMZW5ndGg9IjQiIHg9IjU1OC41IiB5PSI1NzguNjQ4MyI+JiMxNjA7PC90ZXh0Pjx0ZXh0IGZpbGw9IiMwMDAwMDAiIGZvbnQtZmFtaWx5PSJzYW5zLXNlcmlmIiBmb250LXNpemU9IjEzIiBsZW5ndGhBZGp1c3Q9InNwYWNpbmciIHRleHRMZW5ndGg9IjQyIiB4PSI1NjIuNSIgeT0iNTc4LjY0ODMiPlNoYXJlZDwvdGV4dD48dGV4dCBmaWxsPSIjMDAwMDAwIiBmb250LWZhbWlseT0ic2Fucy1zZXJpZiIgZm9udC1zaXplPSIxMyIgbGVuZ3RoQWRqdXN0PSJzcGFjaW5nIiB0ZXh0TGVuZ3RoPSI0IiB4PSI2MDQuNSIgeT0iNTc4LjY0ODMiPiYjMTYwOzwvdGV4dD48dGV4dCBmaWxsPSIjMDAwMDAwIiBmb250LWZhbWlseT0ic2Fucy1zZXJpZiIgZm9udC1zaXplPSIxMyIgbGVuZ3RoQWRqdXN0PSJzcGFjaW5nIiB0ZXh0TGVuZ3RoPSI4NSIgeD0iNjA4LjUiIHk9IjU3OC42NDgzIj5jb25maWd1cmF0aW9uPC90ZXh0Pjx0ZXh0IGZpbGw9IiMwMDAwMDAiIGZvbnQtZmFtaWx5PSJzYW5zLXNlcmlmIiBmb250LXNpemU9IjEzIiBsZW5ndGhBZGp1c3Q9InNwYWNpbmciIHRleHRMZW5ndGg9IjciIHg9IjU1NSIgeT0iNTkzLjk1ODgiPiYjODIyNjs8L3RleHQ+PHRleHQgZmlsbD0iIzAwMDAwMCIgZm9udC1mYW1pbHk9InNhbnMtc2VyaWYiIGZvbnQtc2l6ZT0iMTMiIGxlbmd0aEFkanVzdD0ic3BhY2luZyIgdGV4dExlbmd0aD0iNCIgeD0iNTYyIiB5PSI1OTMuOTU4OCI+JiMxNjA7PC90ZXh0Pjx0ZXh0IGZpbGw9IiMwMDAwMDAiIGZvbnQtZmFtaWx5PSJzYW5zLXNlcmlmIiBmb250LXNpemU9IjEzIiBsZW5ndGhBZGp1c3Q9InNwYWNpbmciIHRleHRMZW5ndGg9IjcyIiB4PSI1NjYiIHk9IjU5My45NTg4Ij5Db25uZWN0aW9uPC90ZXh0Pjx0ZXh0IGZpbGw9IiMwMDAwMDAiIGZvbnQtZmFtaWx5PSJzYW5zLXNlcmlmIiBmb250LXNpemU9IjEzIiBsZW5ndGhBZGp1c3Q9InNwYWNpbmciIHRleHRMZW5ndGg9IjQiIHg9IjYzOCIgeT0iNTkzLjk1ODgiPiYjMTYwOzwvdGV4dD48dGV4dCBmaWxsPSIjMDAwMDAwIiBmb250LWZhbWlseT0ic2Fucy1zZXJpZiIgZm9udC1zaXplPSIxMyIgbGVuZ3RoQWRqdXN0PSJzcGFjaW5nIiB0ZXh0TGVuZ3RoPSI0OCIgeD0iNjQyIiB5PSI1OTMuOTU4OCI+cG9vbGluZzwvdGV4dD48dGV4dCBmaWxsPSIjMDAwMDAwIiBmb250LWZhbWlseT0ic2Fucy1zZXJpZiIgZm9udC1zaXplPSIxMyIgbGVuZ3RoQWRqdXN0PSJzcGFjaW5nIiB0ZXh0TGVuZ3RoPSI3IiB4PSI1NDAuNSIgeT0iNjA5LjI2OTQiPiYjODIyNjs8L3RleHQ+PHRleHQgZmlsbD0iIzAwMDAwMCIgZm9udC1mYW1pbHk9InNhbnMtc2VyaWYiIGZvbnQtc2l6ZT0iMTMiIGxlbmd0aEFkanVzdD0ic3BhY2luZyIgdGV4dExlbmd0aD0iNCIgeD0iNTQ3LjUiIHk9IjYwOS4yNjk0Ij4mIzE2MDs8L3RleHQ+PHRleHQgZmlsbD0iIzAwMDAwMCIgZm9udC1mYW1pbHk9InNhbnMtc2VyaWYiIGZvbnQtc2l6ZT0iMTMiIGxlbmd0aEFkanVzdD0ic3BhY2luZyIgdGV4dExlbmd0aD0iNjYiIHg9IjU1MS41IiB5PSI2MDkuMjY5NCI+SG9yaXpvbnRhbDwvdGV4dD48dGV4dCBmaWxsPSIjMDAwMDAwIiBmb250LWZhbWlseT0ic2Fucy1zZXJpZiIgZm9udC1zaXplPSIxMyIgbGVuZ3RoQWRqdXN0PSJzcGFjaW5nIiB0ZXh0TGVuZ3RoPSI0IiB4PSI2MTcuNSIgeT0iNjA5LjI2OTQiPiYjMTYwOzwvdGV4dD48dGV4dCBmaWxsPSIjMDAwMDAwIiBmb250LWZhbWlseT0ic2Fucy1zZXJpZiIgZm9udC1zaXplPSIxMyIgbGVuZ3RoQWRqdXN0PSJzcGFjaW5nIiB0ZXh0TGVuZ3RoPSI0NSIgeD0iNjIxLjUiIHk9IjYwOS4yNjk0Ij5zY2FsaW5nPC90ZXh0Pjx0ZXh0IGZpbGw9IiMwMDAwMDAiIGZvbnQtZmFtaWx5PSJzYW5zLXNlcmlmIiBmb250LXNpemU9IjEzIiBsZW5ndGhBZGp1c3Q9InNwYWNpbmciIHRleHRMZW5ndGg9IjQiIHg9IjY2Ni41IiB5PSI2MDkuMjY5NCI+JiMxNjA7PC90ZXh0Pjx0ZXh0IGZpbGw9IiMwMDAwMDAiIGZvbnQtZmFtaWx5PSJzYW5zLXNlcmlmIiBmb250LXNpemU9IjEzIiBsZW5ndGhBZGp1c3Q9InNwYWNpbmciIHRleHRMZW5ndGg9IjM0IiB4PSI2NzAuNSIgeT0iNjA5LjI2OTQiPnJlYWR5PC90ZXh0PjwvZz48ZyBpZD0iZWxlbV9HTU4yNCI+PHBhdGggZD0iTTQxOSw4NzMuNDY4MyBMNDE5LDk3NS4zMzE2IEw2MzEsOTc1LjMzMTYgTDYzMSw4ODMuNDY4MyBMNjIxLDg3My40NjgzIEw0MTksODczLjQ2ODMgIiBmaWxsPSIjRkVGRkREIiBzdHlsZT0ic3Ryb2tlOiMxODE4MTg7c3Ryb2tlLXdpZHRoOjAuNTsiLz48cGF0aCBkPSJNNjIxLDg3My40NjgzIEw2MjEsODgzLjQ2ODMgTDYzMSw4ODMuNDY4MyBMNjIxLDg3My40NjgzICIgZmlsbD0iI0ZFRkZERCIgc3R5bGU9InN0cm9rZTojMTgxODE4O3N0cm9rZS13aWR0aDoxLjA7Ii8+PHRleHQgZmlsbD0iIzAwMDAwMCIgZm9udC1mYW1pbHk9InNhbnMtc2VyaWYiIGZvbnQtc2l6ZT0iMTMiIGZvbnQtd2VpZ2h0PSJib2xkIiBsZW5ndGhBZGp1c3Q9InNwYWNpbmciIHRleHRMZW5ndGg9IjYzIiB4PSI0MzUiIHk9Ijg5MS4wMzY2Ij5EYXRhYmFzZTwvdGV4dD48dGV4dCBmaWxsPSIjMDAwMDAwIiBmb250LWZhbWlseT0ic2Fucy1zZXJpZiIgZm9udC1zaXplPSIxMyIgZm9udC13ZWlnaHQ9ImJvbGQiIGxlbmd0aEFkanVzdD0ic3BhY2luZyIgdGV4dExlbmd0aD0iNCIgeD0iNDk4IiB5PSI4OTEuMDM2NiI+JiMxNjA7PC90ZXh0Pjx0ZXh0IGZpbGw9IiMwMDAwMDAiIGZvbnQtZmFtaWx5PSJzYW5zLXNlcmlmIiBmb250LXNpemU9IjEzIiBmb250LXdlaWdodD0iYm9sZCIgbGVuZ3RoQWRqdXN0PSJzcGFjaW5nIiB0ZXh0TGVuZ3RoPSIxMDQiIHg9IjUwMiIgeT0iODkxLjAzNjYiPkNvbnNpZGVyYXRpb25zOjwvdGV4dD48dGV4dCBmaWxsPSIjMDAwMDAwIiBmb250LWZhbWlseT0ic2Fucy1zZXJpZiIgZm9udC1zaXplPSIxMyIgbGVuZ3RoQWRqdXN0PSJzcGFjaW5nIiB0ZXh0TGVuZ3RoPSI3IiB4PSI0NDciIHk9IjkwNi4zNDcyIj4mIzgyMjY7PC90ZXh0Pjx0ZXh0IGZpbGw9IiMwMDAwMDAiIGZvbnQtZmFtaWx5PSJzYW5zLXNlcmlmIiBmb250LXNpemU9IjEzIiBsZW5ndGhBZGp1c3Q9InNwYWNpbmciIHRleHRMZW5ndGg9IjQiIHg9IjQ1NCIgeT0iOTA2LjM0NzIiPiYjMTYwOzwvdGV4dD48dGV4dCBmaWxsPSIjMDAwMDAwIiBmb250LWZhbWlseT0ic2Fucy1zZXJpZiIgZm9udC1zaXplPSIxMyIgbGVuZ3RoQWRqdXN0PSJzcGFjaW5nIiB0ZXh0TGVuZ3RoPSIzOCIgeD0iNDU4IiB5PSI5MDYuMzQ3MiI+U2luZ2xlPC90ZXh0Pjx0ZXh0IGZpbGw9IiMwMDAwMDAiIGZvbnQtZmFtaWx5PSJzYW5zLXNlcmlmIiBmb250LXNpemU9IjEzIiBsZW5ndGhBZGp1c3Q9InNwYWNpbmciIHRleHRMZW5ndGg9IjQiIHg9IjQ5NiIgeT0iOTA2LjM0NzIiPiYjMTYwOzwvdGV4dD48dGV4dCBmaWxsPSIjMDAwMDAwIiBmb250LWZhbWlseT0ic2Fucy1zZXJpZiIgZm9udC1zaXplPSIxMyIgbGVuZ3RoQWRqdXN0PSJzcGFjaW5nIiB0ZXh0TGVuZ3RoPSIzMyIgeD0iNTAwIiB5PSI5MDYuMzQ3MiI+cG9pbnQ8L3RleHQ+PHRleHQgZmlsbD0iIzAwMDAwMCIgZm9udC1mYW1pbHk9InNhbnMtc2VyaWYiIGZvbnQtc2l6ZT0iMTMiIGxlbmd0aEFkanVzdD0ic3BhY2luZyIgdGV4dExlbmd0aD0iNCIgeD0iNTMzIiB5PSI5MDYuMzQ3MiI+JiMxNjA7PC90ZXh0Pjx0ZXh0IGZpbGw9IiMwMDAwMDAiIGZvbnQtZmFtaWx5PSJzYW5zLXNlcmlmIiBmb250LXNpemU9IjEzIiBsZW5ndGhBZGp1c3Q9InNwYWNpbmciIHRleHRMZW5ndGg9IjEzIiB4PSI1MzciIHk9IjkwNi4zNDcyIj5vZjwvdGV4dD48dGV4dCBmaWxsPSIjMDAwMDAwIiBmb250LWZhbWlseT0ic2Fucy1zZXJpZiIgZm9udC1zaXplPSIxMyIgbGVuZ3RoQWRqdXN0PSJzcGFjaW5nIiB0ZXh0TGVuZ3RoPSI0IiB4PSI1NTAiIHk9IjkwNi4zNDcyIj4mIzE2MDs8L3RleHQ+PHRleHQgZmlsbD0iIzAwMDAwMCIgZm9udC1mYW1pbHk9InNhbnMtc2VyaWYiIGZvbnQtc2l6ZT0iMTMiIGxlbmd0aEFkanVzdD0ic3BhY2luZyIgdGV4dExlbmd0aD0iNDAiIHg9IjU1NCIgeT0iOTA2LjM0NzIiPmZhaWx1cmU8L3RleHQ+PHRleHQgZmlsbD0iIzAwMDAwMCIgZm9udC1mYW1pbHk9InNhbnMtc2VyaWYiIGZvbnQtc2l6ZT0iMTMiIGxlbmd0aEFkanVzdD0ic3BhY2luZyIgdGV4dExlbmd0aD0iNyIgeD0iNDI1IiB5PSI5MjEuNjU3NyI+JiM4MjI2OzwvdGV4dD48dGV4dCBmaWxsPSIjMDAwMDAwIiBmb250LWZhbWlseT0ic2Fucy1zZXJpZiIgZm9udC1zaXplPSIxMyIgbGVuZ3RoQWRqdXN0PSJzcGFjaW5nIiB0ZXh0TGVuZ3RoPSI0IiB4PSI0MzIiIHk9IjkyMS42NTc3Ij4mIzE2MDs8L3RleHQ+PHRleHQgZmlsbD0iIzAwMDAwMCIgZm9udC1mYW1pbHk9InNhbnMtc2VyaWYiIGZvbnQtc2l6ZT0iMTMiIGxlbmd0aEFkanVzdD0ic3BhY2luZyIgdGV4dExlbmd0aD0iNzIiIHg9IjQzNiIgeT0iOTIxLjY1NzciPkNvbm5lY3Rpb248L3RleHQ+PHRleHQgZmlsbD0iIzAwMDAwMCIgZm9udC1mYW1pbHk9InNhbnMtc2VyaWYiIGZvbnQtc2l6ZT0iMTMiIGxlbmd0aEFkanVzdD0ic3BhY2luZyIgdGV4dExlbmd0aD0iNCIgeD0iNTA4IiB5PSI5MjEuNjU3NyI+JiMxNjA7PC90ZXh0Pjx0ZXh0IGZpbGw9IiMwMDAwMDAiIGZvbnQtZmFtaWx5PSJzYW5zLXNlcmlmIiBmb250LXNpemU9IjEzIiBsZW5ndGhBZGp1c3Q9InNwYWNpbmciIHRleHRMZW5ndGg9IjI5IiB4PSI1MTIiIHk9IjkyMS42NTc3Ij5saW1pdDwvdGV4dD48dGV4dCBmaWxsPSIjMDAwMDAwIiBmb250LWZhbWlseT0ic2Fucy1zZXJpZiIgZm9udC1zaXplPSIxMyIgbGVuZ3RoQWRqdXN0PSJzcGFjaW5nIiB0ZXh0TGVuZ3RoPSI0IiB4PSI1NDEiIHk9IjkyMS42NTc3Ij4mIzE2MDs8L3RleHQ+PHRleHQgZmlsbD0iIzAwMDAwMCIgZm9udC1mYW1pbHk9InNhbnMtc2VyaWYiIGZvbnQtc2l6ZT0iMTMiIGxlbmd0aEFkanVzdD0ic3BhY2luZyIgdGV4dExlbmd0aD0iNzEiIHg9IjU0NSIgeT0iOTIxLjY1NzciPmNvbnN0cmFpbnRzPC90ZXh0Pjx0ZXh0IGZpbGw9IiMwMDAwMDAiIGZvbnQtZmFtaWx5PSJzYW5zLXNlcmlmIiBmb250LXNpemU9IjEzIiBsZW5ndGhBZGp1c3Q9InNwYWNpbmciIHRleHRMZW5ndGg9IjciIHg9IjQ2MSIgeT0iOTM2Ljk2ODMiPiYjODIyNjs8L3RleHQ+PHRleHQgZmlsbD0iIzAwMDAwMCIgZm9udC1mYW1pbHk9InNhbnMtc2VyaWYiIGZvbnQtc2l6ZT0iMTMiIGxlbmd0aEFkanVzdD0ic3BhY2luZyIgdGV4dExlbmd0aD0iNCIgeD0iNDY4IiB5PSI5MzYuOTY4MyI+JiMxNjA7PC90ZXh0Pjx0ZXh0IGZpbGw9IiMwMDAwMDAiIGZvbnQtZmFtaWx5PSJzYW5zLXNlcmlmIiBmb250LXNpemU9IjEzIiBsZW5ndGhBZGp1c3Q9InNwYWNpbmciIHRleHRMZW5ndGg9IjMyIiB4PSI0NzIiIHk9IjkzNi45NjgzIj5BQ0lEPC90ZXh0Pjx0ZXh0IGZpbGw9IiMwMDAwMDAiIGZvbnQtZmFtaWx5PSJzYW5zLXNlcmlmIiBmb250LXNpemU9IjEzIiBsZW5ndGhBZGp1c3Q9InNwYWNpbmciIHRleHRMZW5ndGg9IjQiIHg9IjUwNCIgeT0iOTM2Ljk2ODMiPiYjMTYwOzwvdGV4dD48dGV4dCBmaWxsPSIjMDAwMDAwIiBmb250LWZhbWlseT0ic2Fucy1zZXJpZiIgZm9udC1zaXplPSIxMyIgbGVuZ3RoQWRqdXN0PSJzcGFjaW5nIiB0ZXh0TGVuZ3RoPSI3MiIgeD0iNTA4IiB5PSI5MzYuOTY4MyI+Y29tcGxpYW5jZTwvdGV4dD48dGV4dCBmaWxsPSIjMDAwMDAwIiBmb250LWZhbWlseT0ic2Fucy1zZXJpZiIgZm9udC1zaXplPSIxMyIgbGVuZ3RoQWRqdXN0PSJzcGFjaW5nIiB0ZXh0TGVuZ3RoPSI3IiB4PSI0NTAuNSIgeT0iOTUyLjI3ODgiPiYjODIyNjs8L3RleHQ+PHRleHQgZmlsbD0iIzAwMDAwMCIgZm9udC1mYW1pbHk9InNhbnMtc2VyaWYiIGZvbnQtc2l6ZT0iMTMiIGxlbmd0aEFkanVzdD0ic3BhY2luZyIgdGV4dExlbmd0aD0iNCIgeD0iNDU3LjUiIHk9Ijk1Mi4yNzg4Ij4mIzE2MDs8L3RleHQ+PHRleHQgZmlsbD0iIzAwMDAwMCIgZm9udC1mYW1pbHk9InNhbnMtc2VyaWYiIGZvbnQtc2l6ZT0iMTMiIGxlbmd0aEFkanVzdD0ic3BhY2luZyIgdGV4dExlbmd0aD0iNDUiIHg9IjQ2MS41IiB5PSI5NTIuMjc4OCI+QmFja3VwPC90ZXh0Pjx0ZXh0IGZpbGw9IiMwMDAwMDAiIGZvbnQtZmFtaWx5PSJzYW5zLXNlcmlmIiBmb250LXNpemU9IjEzIiBsZW5ndGhBZGp1c3Q9InNwYWNpbmciIHRleHRMZW5ndGg9IjQiIHg9IjUwNi41IiB5PSI5NTIuMjc4OCI+JiMxNjA7PC90ZXh0Pjx0ZXh0IGZpbGw9IiMwMDAwMDAiIGZvbnQtZmFtaWx5PSJzYW5zLXNlcmlmIiBmb250LXNpemU9IjEzIiBsZW5ndGhBZGp1c3Q9InNwYWNpbmciIHRleHRMZW5ndGg9IjIzIiB4PSI1MTAuNSIgeT0iOTUyLjI3ODgiPmFuZDwvdGV4dD48dGV4dCBmaWxsPSIjMDAwMDAwIiBmb250LWZhbWlseT0ic2Fucy1zZXJpZiIgZm9udC1zaXplPSIxMyIgbGVuZ3RoQWRqdXN0PSJzcGFjaW5nIiB0ZXh0TGVuZ3RoPSI0IiB4PSI1MzMuNSIgeT0iOTUyLjI3ODgiPiYjMTYwOzwvdGV4dD48dGV4dCBmaWxsPSIjMDAwMDAwIiBmb250LWZhbWlseT0ic2Fucy1zZXJpZiIgZm9udC1zaXplPSIxMyIgbGVuZ3RoQWRqdXN0PSJzcGFjaW5nIiB0ZXh0TGVuZ3RoPSI1MyIgeD0iNTM3LjUiIHk9Ijk1Mi4yNzg4Ij5yZWNvdmVyeTwvdGV4dD48dGV4dCBmaWxsPSIjMDAwMDAwIiBmb250LWZhbWlseT0ic2Fucy1zZXJpZiIgZm9udC1zaXplPSIxMyIgbGVuZ3RoQWRqdXN0PSJzcGFjaW5nIiB0ZXh0TGVuZ3RoPSI3IiB4PSI0MzkiIHk9Ijk2Ny41ODk0Ij4mIzgyMjY7PC90ZXh0Pjx0ZXh0IGZpbGw9IiMwMDAwMDAiIGZvbnQtZmFtaWx5PSJzYW5zLXNlcmlmIiBmb250LXNpemU9IjEzIiBsZW5ndGhBZGp1c3Q9InNwYWNpbmciIHRleHRMZW5ndGg9IjQiIHg9IjQ0NiIgeT0iOTY3LjU4OTQiPiYjMTYwOzwvdGV4dD48dGV4dCBmaWxsPSIjMDAwMDAwIiBmb250LWZhbWlseT0ic2Fucy1zZXJpZiIgZm9udC1zaXplPSIxMyIgbGVuZ3RoQWRqdXN0PSJzcGFjaW5nIiB0ZXh0TGVuZ3RoPSI3OCIgeD0iNDUwIiB5PSI5NjcuNTg5NCI+UGVyZm9ybWFuY2U8L3RleHQ+PHRleHQgZmlsbD0iIzAwMDAwMCIgZm9udC1mYW1pbHk9InNhbnMtc2VyaWYiIGZvbnQtc2l6ZT0iMTMiIGxlbmd0aEFkanVzdD0ic3BhY2luZyIgdGV4dExlbmd0aD0iNCIgeD0iNTI4IiB5PSI5NjcuNTg5NCI+JiMxNjA7PC90ZXh0Pjx0ZXh0IGZpbGw9IiMwMDAwMDAiIGZvbnQtZmFtaWx5PSJzYW5zLXNlcmlmIiBmb250LXNpemU9IjEzIiBsZW5ndGhBZGp1c3Q9InNwYWNpbmciIHRleHRMZW5ndGg9IjcwIiB4PSI1MzIiIHk9Ijk2Ny41ODk0Ij5tb25pdG9yaW5nPC90ZXh0PjwvZz48ZyBpZD0iZWxlbV9HTU4yNyI+PHBhdGggZD0iTTg3NiwxNjIuNzM4MyBMODc2LDI0OS4yOTEgTDEwNzAsMjQ5LjI5MSBMMTA3MCwxNzIuNzM4MyBMMTA2MCwxNjIuNzM4MyBMODc2LDE2Mi43MzgzICIgZmlsbD0iI0ZFRkZERCIgc3R5bGU9InN0cm9rZTojMTgxODE4O3N0cm9rZS13aWR0aDowLjU7Ii8+PHBhdGggZD0iTTEwNjAsMTYyLjczODMgTDEwNjAsMTcyLjczODMgTDEwNzAsMTcyLjczODMgTDEwNjAsMTYyLjczODMgIiBmaWxsPSIjRkVGRkREIiBzdHlsZT0ic3Ryb2tlOiMxODE4MTg7c3Ryb2tlLXdpZHRoOjEuMDsiLz48dGV4dCBmaWxsPSIjMDAwMDAwIiBmb250LWZhbWlseT0ic2Fucy1zZXJpZiIgZm9udC1zaXplPSIxMyIgZm9udC13ZWlnaHQ9ImJvbGQiIGxlbmd0aEFkanVzdD0ic3BhY2luZyIgdGV4dExlbmd0aD0iNDgiIHg9IjkxNCIgeT0iMTgwLjMwNjYiPlNjYWxpbmc8L3RleHQ+PHRleHQgZmlsbD0iIzAwMDAwMCIgZm9udC1mYW1pbHk9InNhbnMtc2VyaWYiIGZvbnQtc2l6ZT0iMTMiIGZvbnQtd2VpZ2h0PSJib2xkIiBsZW5ndGhBZGp1c3Q9InNwYWNpbmciIHRleHRMZW5ndGg9IjQiIHg9Ijk2MiIgeT0iMTgwLjMwNjYiPiYjMTYwOzwvdGV4dD48dGV4dCBmaWxsPSIjMDAwMDAwIiBmb250LWZhbWlseT0ic2Fucy1zZXJpZiIgZm9udC1zaXplPSIxMyIgZm9udC13ZWlnaHQ9ImJvbGQiIGxlbmd0aEFkanVzdD0ic3BhY2luZyIgdGV4dExlbmd0aD0iNTciIHg9Ijk2NiIgeT0iMTgwLjMwNjYiPkJlbmVmaXRzOjwvdGV4dD48dGV4dCBmaWxsPSIjMDAwMDAwIiBmb250LWZhbWlseT0ic2Fucy1zZXJpZiIgZm9udC1zaXplPSIxMyIgbGVuZ3RoQWRqdXN0PSJzcGFjaW5nIiB0ZXh0TGVuZ3RoPSI3IiB4PSI4OTUuNSIgeT0iMTk1LjYxNzIiPiYjODIyNjs8L3RleHQ+PHRleHQgZmlsbD0iIzAwMDAwMCIgZm9udC1mYW1pbHk9InNhbnMtc2VyaWYiIGZvbnQtc2l6ZT0iMTMiIGxlbmd0aEFkanVzdD0ic3BhY2luZyIgdGV4dExlbmd0aD0iNCIgeD0iOTAyLjUiIHk9IjE5NS42MTcyIj4mIzE2MDs8L3RleHQ+PHRleHQgZmlsbD0iIzAwMDAwMCIgZm9udC1mYW1pbHk9InNhbnMtc2VyaWYiIGZvbnQtc2l6ZT0iMTMiIGxlbmd0aEFkanVzdD0ic3BhY2luZyIgdGV4dExlbmd0aD0iNjAiIHg9IjkwNi41IiB5PSIxOTUuNjE3MiI+SW5jcmVhc2VkPC90ZXh0Pjx0ZXh0IGZpbGw9IiMwMDAwMDAiIGZvbnQtZmFtaWx5PSJzYW5zLXNlcmlmIiBmb250LXNpemU9IjEzIiBsZW5ndGhBZGp1c3Q9InNwYWNpbmciIHRleHRMZW5ndGg9IjQiIHg9Ijk2Ni41IiB5PSIxOTUuNjE3MiI+JiMxNjA7PC90ZXh0Pjx0ZXh0IGZpbGw9IiMwMDAwMDAiIGZvbnQtZmFtaWx5PSJzYW5zLXNlcmlmIiBmb250LXNpemU9IjEzIiBsZW5ndGhBZGp1c3Q9InNwYWNpbmciIHRleHRMZW5ndGg9IjcxIiB4PSI5NzAuNSIgeT0iMTk1LjYxNzIiPnRocm91Z2hwdXQ8L3RleHQ+PHRleHQgZmlsbD0iIzAwMDAwMCIgZm9udC1mYW1pbHk9InNhbnMtc2VyaWYiIGZvbnQtc2l6ZT0iMTMiIGxlbmd0aEFkanVzdD0ic3BhY2luZyIgdGV4dExlbmd0aD0iNyIgeD0iOTE2LjUiIHk9IjIxMC45Mjc3Ij4mIzgyMjY7PC90ZXh0Pjx0ZXh0IGZpbGw9IiMwMDAwMDAiIGZvbnQtZmFtaWx5PSJzYW5zLXNlcmlmIiBmb250LXNpemU9IjEzIiBsZW5ndGhBZGp1c3Q9InNwYWNpbmciIHRleHRMZW5ndGg9IjQiIHg9IjkyMy41IiB5PSIyMTAuOTI3NyI+JiMxNjA7PC90ZXh0Pjx0ZXh0IGZpbGw9IiMwMDAwMDAiIGZvbnQtZmFtaWx5PSJzYW5zLXNlcmlmIiBmb250LXNpemU9IjEzIiBsZW5ndGhBZGp1c3Q9InNwYWNpbmciIHRleHRMZW5ndGg9IjMxIiB4PSI5MjcuNSIgeT0iMjEwLjkyNzciPkZhdWx0PC90ZXh0Pjx0ZXh0IGZpbGw9IiMwMDAwMDAiIGZvbnQtZmFtaWx5PSJzYW5zLXNlcmlmIiBmb250LXNpemU9IjEzIiBsZW5ndGhBZGp1c3Q9InNwYWNpbmciIHRleHRMZW5ndGg9IjQiIHg9Ijk1OC41IiB5PSIyMTAuOTI3NyI+JiMxNjA7PC90ZXh0Pjx0ZXh0IGZpbGw9IiMwMDAwMDAiIGZvbnQtZmFtaWx5PSJzYW5zLXNlcmlmIiBmb250LXNpemU9IjEzIiBsZW5ndGhBZGp1c3Q9InNwYWNpbmciIHRleHRMZW5ndGg9IjU4IiB4PSI5NjIuNSIgeT0iMjEwLjkyNzciPnRvbGVyYW5jZTwvdGV4dD48dGV4dCBmaWxsPSIjMDAwMDAwIiBmb250LWZhbWlseT0ic2Fucy1zZXJpZiIgZm9udC1zaXplPSIxMyIgbGVuZ3RoQWRqdXN0PSJzcGFjaW5nIiB0ZXh0TGVuZ3RoPSI3IiB4PSI5MDkiIHk9IjIyNi4yMzgzIj4mIzgyMjY7PC90ZXh0Pjx0ZXh0IGZpbGw9IiMwMDAwMDAiIGZvbnQtZmFtaWx5PSJzYW5zLXNlcmlmIiBmb250LXNpemU9IjEzIiBsZW5ndGhBZGp1c3Q9InNwYWNpbmciIHRleHRMZW5ndGg9IjQiIHg9IjkxNiIgeT0iMjI2LjIzODMiPiYjMTYwOzwvdGV4dD48dGV4dCBmaWxsPSIjMDAwMDAwIiBmb250LWZhbWlseT0ic2Fucy1zZXJpZiIgZm9udC1zaXplPSIxMyIgbGVuZ3RoQWRqdXN0PSJzcGFjaW5nIiB0ZXh0TGVuZ3RoPSIzMCIgeD0iOTIwIiB5PSIyMjYuMjM4MyI+TG9hZDwvdGV4dD48dGV4dCBmaWxsPSIjMDAwMDAwIiBmb250LWZhbWlseT0ic2Fucy1zZXJpZiIgZm9udC1zaXplPSIxMyIgbGVuZ3RoQWRqdXN0PSJzcGFjaW5nIiB0ZXh0TGVuZ3RoPSI0IiB4PSI5NTAiIHk9IjIyNi4yMzgzIj4mIzE2MDs8L3RleHQ+PHRleHQgZmlsbD0iIzAwMDAwMCIgZm9udC1mYW1pbHk9InNhbnMtc2VyaWYiIGZvbnQtc2l6ZT0iMTMiIGxlbmd0aEFkanVzdD0ic3BhY2luZyIgdGV4dExlbmd0aD0iNzQiIHg9Ijk1NCIgeT0iMjI2LjIzODMiPmRpc3RyaWJ1dGlvbjwvdGV4dD48dGV4dCBmaWxsPSIjMDAwMDAwIiBmb250LWZhbWlseT0ic2Fucy1zZXJpZiIgZm9udC1zaXplPSIxMyIgbGVuZ3RoQWRqdXN0PSJzcGFjaW5nIiB0ZXh0TGVuZ3RoPSI3IiB4PSI4ODIiIHk9IjI0MS41NDg4Ij4mIzgyMjY7PC90ZXh0Pjx0ZXh0IGZpbGw9IiMwMDAwMDAiIGZvbnQtZmFtaWx5PSJzYW5zLXNlcmlmIiBmb250LXNpemU9IjEzIiBsZW5ndGhBZGp1c3Q9InNwYWNpbmciIHRleHRMZW5ndGg9IjQiIHg9Ijg4OSIgeT0iMjQxLjU0ODgiPiYjMTYwOzwvdGV4dD48dGV4dCBmaWxsPSIjMDAwMDAwIiBmb250LWZhbWlseT0ic2Fucy1zZXJpZiIgZm9udC1zaXplPSIxMyIgbGVuZ3RoQWRqdXN0PSJzcGFjaW5nIiB0ZXh0TGVuZ3RoPSIzNiIgeD0iODkzIiB5PSIyNDEuNTQ4OCI+QmV0dGVyPC90ZXh0Pjx0ZXh0IGZpbGw9IiMwMDAwMDAiIGZvbnQtZmFtaWx5PSJzYW5zLXNlcmlmIiBmb250LXNpemU9IjEzIiBsZW5ndGhBZGp1c3Q9InNwYWNpbmciIHRleHRMZW5ndGg9IjQiIHg9IjkyOSIgeT0iMjQxLjU0ODgiPiYjMTYwOzwvdGV4dD48dGV4dCBmaWxsPSIjMDAwMDAwIiBmb250LWZhbWlseT0ic2Fucy1zZXJpZiIgZm9udC1zaXplPSIxMyIgbGVuZ3RoQWRqdXN0PSJzcGFjaW5nIiB0ZXh0TGVuZ3RoPSI1NCIgeD0iOTMzIiB5PSIyNDEuNTQ4OCI+cmVzb3VyY2U8L3RleHQ+PHRleHQgZmlsbD0iIzAwMDAwMCIgZm9udC1mYW1pbHk9InNhbnMtc2VyaWYiIGZvbnQtc2l6ZT0iMTMiIGxlbmd0aEFkanVzdD0ic3BhY2luZyIgdGV4dExlbmd0aD0iNCIgeD0iOTg3IiB5PSIyNDEuNTQ4OCI+JiMxNjA7PC90ZXh0Pjx0ZXh0IGZpbGw9IiMwMDAwMDAiIGZvbnQtZmFtaWx5PSJzYW5zLXNlcmlmIiBmb250LXNpemU9IjEzIiBsZW5ndGhBZGp1c3Q9InNwYWNpbmciIHRleHRMZW5ndGg9IjY0IiB4PSI5OTEiIHk9IjI0MS41NDg4Ij51dGlsaXphdGlvbjwvdGV4dD48L2c+PGcgaWQ9ImVsZW1fR01OMzAiPjxwYXRoIGQ9Ik0yOTYsMTA5MC4xODgzIEwyOTYsMTE3Ni43NDEgTDQ3MiwxMTc2Ljc0MSBMNDcyLDExMDAuMTg4MyBMNDYyLDEwOTAuMTg4MyBMMjk2LDEwOTAuMTg4MyAiIGZpbGw9IiNGRUZGREQiIHN0eWxlPSJzdHJva2U6IzE4MTgxODtzdHJva2Utd2lkdGg6MC41OyIvPjxwYXRoIGQ9Ik00NjIsMTA5MC4xODgzIEw0NjIsMTEwMC4xODgzIEw0NzIsMTEwMC4xODgzIEw0NjIsMTA5MC4xODgzICIgZmlsbD0iI0ZFRkZERCIgc3R5bGU9InN0cm9rZTojMTgxODE4O3N0cm9rZS13aWR0aDoxLjA7Ii8+PHRleHQgZmlsbD0iIzAwMDAwMCIgZm9udC1mYW1pbHk9InNhbnMtc2VyaWYiIGZvbnQtc2l6ZT0iMTMiIGZvbnQtd2VpZ2h0PSJib2xkIiBsZW5ndGhBZGp1c3Q9InNwYWNpbmciIHRleHRMZW5ndGg9IjUyIiB4PSIzMTIuNSIgeT0iMTEwNy43NTY2Ij5DdXJyZW50PC90ZXh0Pjx0ZXh0IGZpbGw9IiMwMDAwMDAiIGZvbnQtZmFtaWx5PSJzYW5zLXNlcmlmIiBmb250LXNpemU9IjEzIiBmb250LXdlaWdodD0iYm9sZCIgbGVuZ3RoQWRqdXN0PSJzcGFjaW5nIiB0ZXh0TGVuZ3RoPSI0IiB4PSIzNjQuNSIgeT0iMTEwNy43NTY2Ij4mIzE2MDs8L3RleHQ+PHRleHQgZmlsbD0iIzAwMDAwMCIgZm9udC1mYW1pbHk9InNhbnMtc2VyaWYiIGZvbnQtc2l6ZT0iMTMiIGZvbnQtd2VpZ2h0PSJib2xkIiBsZW5ndGhBZGp1c3Q9InNwYWNpbmciIHRleHRMZW5ndGg9Ijc4IiB4PSIzNjguNSIgeT0iMTEwNy43NTY2Ij5MaW1pdGF0aW9uczo8L3RleHQ+PHRleHQgZmlsbD0iIzAwMDAwMCIgZm9udC1mYW1pbHk9InNhbnMtc2VyaWYiIGZvbnQtc2l6ZT0iMTMiIGxlbmd0aEFkanVzdD0ic3BhY2luZyIgdGV4dExlbmd0aD0iNyIgeD0iMzA5LjUiIHk9IjExMjMuMDY3MiI+JiM4MjI2OzwvdGV4dD48dGV4dCBmaWxsPSIjMDAwMDAwIiBmb250LWZhbWlseT0ic2Fucy1zZXJpZiIgZm9udC1zaXplPSIxMyIgbGVuZ3RoQWRqdXN0PSJzcGFjaW5nIiB0ZXh0TGVuZ3RoPSI0IiB4PSIzMTYuNSIgeT0iMTEyMy4wNjcyIj4mIzE2MDs8L3RleHQ+PHRleHQgZmlsbD0iIzAwMDAwMCIgZm9udC1mYW1pbHk9InNhbnMtc2VyaWYiIGZvbnQtc2l6ZT0iMTMiIGxlbmd0aEFkanVzdD0ic3BhY2luZyIgdGV4dExlbmd0aD0iNTgiIHg9IjMyMC41IiB5PSIxMTIzLjA2NzIiPkRhdGFiYXNlPC90ZXh0Pjx0ZXh0IGZpbGw9IiMwMDAwMDAiIGZvbnQtZmFtaWx5PSJzYW5zLXNlcmlmIiBmb250LXNpemU9IjEzIiBsZW5ndGhBZGp1c3Q9InNwYWNpbmciIHRleHRMZW5ndGg9IjQiIHg9IjM3OC41IiB5PSIxMTIzLjA2NzIiPiYjMTYwOzwvdGV4dD48dGV4dCBmaWxsPSIjMDAwMDAwIiBmb250LWZhbWlseT0ic2Fucy1zZXJpZiIgZm9udC1zaXplPSIxMyIgbGVuZ3RoQWRqdXN0PSJzcGFjaW5nIiB0ZXh0TGVuZ3RoPSI2NyIgeD0iMzgyLjUiIHk9IjExMjMuMDY3MiI+Ym90dGxlbmVjazwvdGV4dD48dGV4dCBmaWxsPSIjMDAwMDAwIiBmb250LWZhbWlseT0ic2Fucy1zZXJpZiIgZm9udC1zaXplPSIxMyIgbGVuZ3RoQWRqdXN0PSJzcGFjaW5nIiB0ZXh0TGVuZ3RoPSI3IiB4PSIzMjUiIHk9IjExMzguMzc3NyI+JiM4MjI2OzwvdGV4dD48dGV4dCBmaWxsPSIjMDAwMDAwIiBmb250LWZhbWlseT0ic2Fucy1zZXJpZiIgZm9udC1zaXplPSIxMyIgbGVuZ3RoQWRqdXN0PSJzcGFjaW5nIiB0ZXh0TGVuZ3RoPSI0IiB4PSIzMzIiIHk9IjExMzguMzc3NyI+JiMxNjA7PC90ZXh0Pjx0ZXh0IGZpbGw9IiMwMDAwMDAiIGZvbnQtZmFtaWx5PSJzYW5zLXNlcmlmIiBmb250LXNpemU9IjEzIiBsZW5ndGhBZGp1c3Q9InNwYWNpbmciIHRleHRMZW5ndGg9IjE4IiB4PSIzMzYiIHk9IjExMzguMzc3NyI+Tm88L3RleHQ+PHRleHQgZmlsbD0iIzAwMDAwMCIgZm9udC1mYW1pbHk9InNhbnMtc2VyaWYiIGZvbnQtc2l6ZT0iMTMiIGxlbmd0aEFkanVzdD0ic3BhY2luZyIgdGV4dExlbmd0aD0iNCIgeD0iMzU0IiB5PSIxMTM4LjM3NzciPiYjMTYwOzwvdGV4dD48dGV4dCBmaWxsPSIjMDAwMDAwIiBmb250LWZhbWlseT0ic2Fucy1zZXJpZiIgZm9udC1zaXplPSIxMyIgbGVuZ3RoQWRqdXN0PSJzcGFjaW5nIiB0ZXh0TGVuZ3RoPSIyNyIgeD0iMzU4IiB5PSIxMTM4LjM3NzciPnJlYWQ8L3RleHQ+PHRleHQgZmlsbD0iIzAwMDAwMCIgZm9udC1mYW1pbHk9InNhbnMtc2VyaWYiIGZvbnQtc2l6ZT0iMTMiIGxlbmd0aEFkanVzdD0ic3BhY2luZyIgdGV4dExlbmd0aD0iNCIgeD0iMzg1IiB5PSIxMTM4LjM3NzciPiYjMTYwOzwvdGV4dD48dGV4dCBmaWxsPSIjMDAwMDAwIiBmb250LWZhbWlseT0ic2Fucy1zZXJpZiIgZm9udC1zaXplPSIxMyIgbGVuZ3RoQWRqdXN0PSJzcGFjaW5nIiB0ZXh0TGVuZ3RoPSI0NSIgeD0iMzg5IiB5PSIxMTM4LjM3NzciPnNjYWxpbmc8L3RleHQ+PHRleHQgZmlsbD0iIzAwMDAwMCIgZm9udC1mYW1pbHk9InNhbnMtc2VyaWYiIGZvbnQtc2l6ZT0iMTMiIGxlbmd0aEFkanVzdD0ic3BhY2luZyIgdGV4dExlbmd0aD0iNyIgeD0iMzE0LjUiIHk9IjExNTMuNjg4MyI+JiM4MjI2OzwvdGV4dD48dGV4dCBmaWxsPSIjMDAwMDAwIiBmb250LWZhbWlseT0ic2Fucy1zZXJpZiIgZm9udC1zaXplPSIxMyIgbGVuZ3RoQWRqdXN0PSJzcGFjaW5nIiB0ZXh0TGVuZ3RoPSI0IiB4PSIzMjEuNSIgeT0iMTE1My42ODgzIj4mIzE2MDs8L3RleHQ+PHRleHQgZmlsbD0iIzAwMDAwMCIgZm9udC1mYW1pbHk9InNhbnMtc2VyaWYiIGZvbnQtc2l6ZT0iMTMiIGxlbmd0aEFkanVzdD0ic3BhY2luZyIgdGV4dExlbmd0aD0iMzgiIHg9IjMyNS41IiB5PSIxMTUzLjY4ODMiPlNpbmdsZTwvdGV4dD48dGV4dCBmaWxsPSIjMDAwMDAwIiBmb250LWZhbWlseT0ic2Fucy1zZXJpZiIgZm9udC1zaXplPSIxMyIgbGVuZ3RoQWRqdXN0PSJzcGFjaW5nIiB0ZXh0TGVuZ3RoPSI0IiB4PSIzNjMuNSIgeT0iMTE1My42ODgzIj4mIzE2MDs8L3RleHQ+PHRleHQgZmlsbD0iIzAwMDAwMCIgZm9udC1mYW1pbHk9InNhbnMtc2VyaWYiIGZvbnQtc2l6ZT0iMTMiIGxlbmd0aEFkanVzdD0ic3BhY2luZyIgdGV4dExlbmd0aD0iNDAiIHg9IjM2Ny41IiB5PSIxMTUzLjY4ODMiPmZhaWx1cmU8L3RleHQ+PHRleHQgZmlsbD0iIzAwMDAwMCIgZm9udC1mYW1pbHk9InNhbnMtc2VyaWYiIGZvbnQtc2l6ZT0iMTMiIGxlbmd0aEFkanVzdD0ic3BhY2luZyIgdGV4dExlbmd0aD0iNCIgeD0iNDA3LjUiIHk9IjExNTMuNjg4MyI+JiMxNjA7PC90ZXh0Pjx0ZXh0IGZpbGw9IiMwMDAwMDAiIGZvbnQtZmFtaWx5PSJzYW5zLXNlcmlmIiBmb250LXNpemU9IjEzIiBsZW5ndGhBZGp1c3Q9InNwYWNpbmciIHRleHRMZW5ndGg9IjMzIiB4PSI0MTEuNSIgeT0iMTE1My42ODgzIj5wb2ludDwvdGV4dD48dGV4dCBmaWxsPSIjMDAwMDAwIiBmb250LWZhbWlseT0ic2Fucy1zZXJpZiIgZm9udC1zaXplPSIxMyIgbGVuZ3RoQWRqdXN0PSJzcGFjaW5nIiB0ZXh0TGVuZ3RoPSI3IiB4PSIzMDIiIHk9IjExNjguOTk4OCI+JiM4MjI2OzwvdGV4dD48dGV4dCBmaWxsPSIjMDAwMDAwIiBmb250LWZhbWlseT0ic2Fucy1zZXJpZiIgZm9udC1zaXplPSIxMyIgbGVuZ3RoQWRqdXN0PSJzcGFjaW5nIiB0ZXh0TGVuZ3RoPSI0IiB4PSIzMDkiIHk9IjExNjguOTk4OCI+JiMxNjA7PC90ZXh0Pjx0ZXh0IGZpbGw9IiMwMDAwMDAiIGZvbnQtZmFtaWx5PSJzYW5zLXNlcmlmIiBmb250LXNpemU9IjEzIiBsZW5ndGhBZGp1c3Q9InNwYWNpbmciIHRleHRMZW5ndGg9IjcyIiB4PSIzMTMiIHk9IjExNjguOTk4OCI+Q29ubmVjdGlvbjwvdGV4dD48dGV4dCBmaWxsPSIjMDAwMDAwIiBmb250LWZhbWlseT0ic2Fucy1zZXJpZiIgZm9udC1zaXplPSIxMyIgbGVuZ3RoQWRqdXN0PSJzcGFjaW5nIiB0ZXh0TGVuZ3RoPSI0IiB4PSIzODUiIHk9IjExNjguOTk4OCI+JiMxNjA7PC90ZXh0Pjx0ZXh0IGZpbGw9IiMwMDAwMDAiIGZvbnQtZmFtaWx5PSJzYW5zLXNlcmlmIiBmb250LXNpemU9IjEzIiBsZW5ndGhBZGp1c3Q9InNwYWNpbmciIHRleHRMZW5ndGg9IjI4IiB4PSIzODkiIHk9IjExNjguOTk4OCI+cG9vbDwvdGV4dD48dGV4dCBmaWxsPSIjMDAwMDAwIiBmb250LWZhbWlseT0ic2Fucy1zZXJpZiIgZm9udC1zaXplPSIxMyIgbGVuZ3RoQWRqdXN0PSJzcGFjaW5nIiB0ZXh0TGVuZ3RoPSI0IiB4PSI0MTciIHk9IjExNjguOTk4OCI+JiMxNjA7PC90ZXh0Pjx0ZXh0IGZpbGw9IiMwMDAwMDAiIGZvbnQtZmFtaWx5PSJzYW5zLXNlcmlmIiBmb250LXNpemU9IjEzIiBsZW5ndGhBZGp1c3Q9InNwYWNpbmciIHRleHRMZW5ndGg9IjM2IiB4PSI0MjEiIHk9IjExNjguOTk4OCI+bGltaXRzPC90ZXh0PjwvZz48IS0tbGluayB1c2VycyB0byBsb2FkX2JhbGFuY2VyLS0+PGcgaWQ9ImxpbmtfdXNlcnNfbG9hZF9iYWxhbmNlciI+PHBhdGggZD0iTTgzMS4wNiw0OTAuNTM4MyBDODEzLjgzLDQ1MS4xMDgzIDc4Ni43NSw0MDUuNzQ4MyA3NDcsMzgwLjU0ODMgQzczMC43OSwzNzAuMjY4MyA2NzguODksMzc5LjUwODMgNjYxLDM3Mi41NDgzIEM2MzAuODQsMzYwLjgxODMgNjMzLjI4LDMzOS45MzgzIDYwMywzMjguNTQ4MyBDNTU1Ljg4LDMxMC44MTgzIDUzNS42OSwzNDEuNzA4MyA0OTAsMzIwLjU0ODMgQzQ3Ni45OSwzMTQuNTI4MyA0NzAuODY3MywzMTEuMzUxNiA0NTkuNTE3MywzMDIuMDExNiAiIGZpbGw9Im5vbmUiIGlkPSJ1c2Vycy10by1sb2FkX2JhbGFuY2VyIiBzdHlsZT0ic3Ryb2tlOiM2NjY2NjY7c3Ryb2tlLXdpZHRoOjEuMDsiLz48cG9seWdvbiBmaWxsPSIjNjY2NjY2IiBwb2ludHM9IjQ1My4zNCwyOTYuOTI4Myw0NTcuNjExMSwzMDQuMzI4MSw0NjEuNDIzNiwyOTkuNjk1Miw0NTMuMzQsMjk2LjkyODMiIHN0eWxlPSJzdHJva2U6IzY2NjY2NjtzdHJva2Utd2lkdGg6MS4wOyIvPjx0ZXh0IGZpbGw9IiM2NjY2NjYiIGZvbnQtZmFtaWx5PSJzYW5zLXNlcmlmIiBmb250LXNpemU9IjEyIiBmb250LXdlaWdodD0iYm9sZCIgbGVuZ3RoQWRqdXN0PSJzcGFjaW5nIiB0ZXh0TGVuZ3RoPSI3OCIgeD0iNjYyIiB5PSIzNDguMTQ5OCI+SFRUUC9IVFRQUzwvdGV4dD48dGV4dCBmaWxsPSIjNjY2NjY2IiBmb250LWZhbWlseT0ic2Fucy1zZXJpZiIgZm9udC1zaXplPSIxMiIgZm9udC13ZWlnaHQ9ImJvbGQiIGxlbmd0aEFkanVzdD0ic3BhY2luZyIgdGV4dExlbmd0aD0iNCIgeD0iNzQwIiB5PSIzNDguMTQ5OCI+JiMxNjA7PC90ZXh0Pjx0ZXh0IGZpbGw9IiM2NjY2NjYiIGZvbnQtZmFtaWx5PSJzYW5zLXNlcmlmIiBmb250LXNpemU9IjEyIiBmb250LXdlaWdodD0iYm9sZCIgbGVuZ3RoQWRqdXN0PSJzcGFjaW5nIiB0ZXh0TGVuZ3RoPSI1NyIgeD0iNzQ0IiB5PSIzNDguMTQ5OCI+UmVxdWVzdHM8L3RleHQ+PHRleHQgZmlsbD0iIzY2NjY2NiIgZm9udC1mYW1pbHk9InNhbnMtc2VyaWYiIGZvbnQtc2l6ZT0iMTIiIGZvbnQtc3R5bGU9Iml0YWxpYyIgbGVuZ3RoQWRqdXN0PSJzcGFjaW5nIiB0ZXh0TGVuZ3RoPSIyOSIgeD0iNjk2LjUiIHk9IjM2Mi4yODI3Ij5bV2ViPC90ZXh0Pjx0ZXh0IGZpbGw9IiM2NjY2NjYiIGZvbnQtZmFtaWx5PSJzYW5zLXNlcmlmIiBmb250LXNpemU9IjEyIiBmb250LXN0eWxlPSJpdGFsaWMiIGxlbmd0aEFkanVzdD0ic3BhY2luZyIgdGV4dExlbmd0aD0iNCIgeD0iNzI1LjUiIHk9IjM2Mi4yODI3Ij4mIzE2MDs8L3RleHQ+PHRleHQgZmlsbD0iIzY2NjY2NiIgZm9udC1mYW1pbHk9InNhbnMtc2VyaWYiIGZvbnQtc2l6ZT0iMTIiIGZvbnQtc3R5bGU9Iml0YWxpYyIgbGVuZ3RoQWRqdXN0PSJzcGFjaW5nIiB0ZXh0TGVuZ3RoPSIzNyIgeD0iNzI5LjUiIHk9IjM2Mi4yODI3Ij50cmFmZmljXTwvdGV4dD48L2c+PCEtLWxpbmsgbG9hZF9iYWxhbmNlciB0byB1c2Vycy0tPjxnIGlkPSJsaW5rX2xvYWRfYmFsYW5jZXJfdXNlcnMiPjxwYXRoIGQ9Ik00NTIuNDMsMjk2Ljk1ODMgQzQ2NCwzMDYuNDI4MyA0NzYuNjEsMzE0LjcwODMgNDkwLDMyMC41NDgzIEM1MDYuMSwzMjcuNTY4MyA3OTIuNSwzMTcuMzE4MyA4MDYsMzI4LjU0ODMgQzg1Mi4zLDM2Ny4wNjgzIDg2Mi40MjA0LDQyOC43MjgzIDg2Mi4zNTA0LDQ4Mi41MDgzICIgZmlsbD0ibm9uZSIgaWQ9ImxvYWRfYmFsYW5jZXItdG8tdXNlcnMiIHN0eWxlPSJzdHJva2U6IzY2NjY2NjtzdHJva2Utd2lkdGg6MS4wOyIvPjxwb2x5Z29uIGZpbGw9IiM2NjY2NjYiIHBvaW50cz0iODYyLjM0LDQ5MC41MDgzLDg2NS4zNTA0LDQ4Mi41MTIyLDg1OS4zNTA0LDQ4Mi41MDQ0LDg2Mi4zNCw0OTAuNTA4MyIgc3R5bGU9InN0cm9rZTojNjY2NjY2O3N0cm9rZS13aWR0aDoxLjA7Ii8+PHRleHQgZmlsbD0iIzY2NjY2NiIgZm9udC1mYW1pbHk9InNhbnMtc2VyaWYiIGZvbnQtc2l6ZT0iMTIiIGZvbnQtd2VpZ2h0PSJib2xkIiBsZW5ndGhBZGp1c3Q9InNwYWNpbmciIHRleHRMZW5ndGg9IjMyIiB4PSI4MzguNDEiIHk9IjM0OC4xNDk4Ij5IVFRQPC90ZXh0Pjx0ZXh0IGZpbGw9IiM2NjY2NjYiIGZvbnQtZmFtaWx5PSJzYW5zLXNlcmlmIiBmb250LXNpemU9IjEyIiBmb250LXdlaWdodD0iYm9sZCIgbGVuZ3RoQWRqdXN0PSJzcGFjaW5nIiB0ZXh0TGVuZ3RoPSI0IiB4PSI4NzAuNDEiIHk9IjM0OC4xNDk4Ij4mIzE2MDs8L3RleHQ+PHRleHQgZmlsbD0iIzY2NjY2NiIgZm9udC1mYW1pbHk9InNhbnMtc2VyaWYiIGZvbnQtc2l6ZT0iMTIiIGZvbnQtd2VpZ2h0PSJib2xkIiBsZW5ndGhBZGp1c3Q9InNwYWNpbmciIHRleHRMZW5ndGg9IjY3IiB4PSI4NzQuNDEiIHk9IjM0OC4xNDk4Ij5SZXNwb25zZXM8L3RleHQ+PHRleHQgZmlsbD0iIzY2NjY2NiIgZm9udC1mYW1pbHk9InNhbnMtc2VyaWYiIGZvbnQtc2l6ZT0iMTIiIGZvbnQtc3R5bGU9Iml0YWxpYyIgbGVuZ3RoQWRqdXN0PSJzcGFjaW5nIiB0ZXh0TGVuZ3RoPSIyOSIgeD0iODUwLjQxIiB5PSIzNjIuMjgyNyI+W1dlYjwvdGV4dD48dGV4dCBmaWxsPSIjNjY2NjY2IiBmb250LWZhbWlseT0ic2Fucy1zZXJpZiIgZm9udC1zaXplPSIxMiIgZm9udC1zdHlsZT0iaXRhbGljIiBsZW5ndGhBZGp1c3Q9InNwYWNpbmciIHRleHRMZW5ndGg9IjQiIHg9Ijg3OS40MSIgeT0iMzYyLjI4MjciPiYjMTYwOzwvdGV4dD48dGV4dCBmaWxsPSIjNjY2NjY2IiBmb250LWZhbWlseT0ic2Fucy1zZXJpZiIgZm9udC1zaXplPSIxMiIgZm9udC1zdHlsZT0iaXRhbGljIiBsZW5ndGhBZGp1c3Q9InNwYWNpbmciIHRleHRMZW5ndGg9IjQ2IiB4PSI4ODMuNDEiIHk9IjM2Mi4yODI3Ij5jb250ZW50XTwvdGV4dD48L2c+PCEtLWxpbmsgbG9hZF9iYWxhbmNlciB0byBhcHBfc2VydmVyXzEtLT48ZyBpZD0ibGlua19sb2FkX2JhbGFuY2VyX2FwcF9zZXJ2ZXJfMSI+PHBhdGggZD0iTTI4NS4xMywyMTQuNjQ4MyBDMjEwLjExLDIyNi4yNTgzIDEwOS40NSwyNTUuNDE4MyA1OSwzMjguNTQ4MyBDMjguOTEsMzcyLjE2ODMgNDEuMjg5OCw0MjEuNDA3MSA2Ni4xNzk4LDQ2OC4xNDcxICIgZmlsbD0ibm9uZSIgaWQ9ImxvYWRfYmFsYW5jZXItdG8tYXBwX3NlcnZlcl8xIiBzdHlsZT0ic3Ryb2tlOiM2NjY2NjY7c3Ryb2tlLXdpZHRoOjEuMDsiLz48cG9seWdvbiBmaWxsPSIjNjY2NjY2IiBwb2ludHM9IjY5Ljk0LDQ3NS4yMDgzLDY4LjgyNzcsNDY2LjczNyw2My41MzE4LDQ2OS41NTcyLDY5Ljk0LDQ3NS4yMDgzIiBzdHlsZT0ic3Ryb2tlOiM2NjY2NjY7c3Ryb2tlLXdpZHRoOjEuMDsiLz48dGV4dCBmaWxsPSIjNjY2NjY2IiBmb250LWZhbWlseT0ic2Fucy1zZXJpZiIgZm9udC1zaXplPSIxMiIgZm9udC13ZWlnaHQ9ImJvbGQiIGxlbmd0aEFkanVzdD0ic3BhY2luZyIgdGV4dExlbmd0aD0iNDMiIHg9IjY1IiB5PSIzNDEuMTQ5OCI+Um91dGVzPC90ZXh0Pjx0ZXh0IGZpbGw9IiM2NjY2NjYiIGZvbnQtZmFtaWx5PSJzYW5zLXNlcmlmIiBmb250LXNpemU9IjEyIiBmb250LXdlaWdodD0iYm9sZCIgbGVuZ3RoQWRqdXN0PSJzcGFjaW5nIiB0ZXh0TGVuZ3RoPSI0IiB4PSIxMDgiIHk9IjM0MS4xNDk4Ij4mIzE2MDs8L3RleHQ+PHRleHQgZmlsbD0iIzY2NjY2NiIgZm9udC1mYW1pbHk9InNhbnMtc2VyaWYiIGZvbnQtc2l6ZT0iMTIiIGZvbnQtd2VpZ2h0PSJib2xkIiBsZW5ndGhBZGp1c3Q9InNwYWNpbmciIHRleHRMZW5ndGg9IjU3IiB4PSIxMTIiIHk9IjM0MS4xNDk4Ij5SZXF1ZXN0czwvdGV4dD48dGV4dCBmaWxsPSIjNjY2NjY2IiBmb250LWZhbWlseT0ic2Fucy1zZXJpZiIgZm9udC1zaXplPSIxMiIgZm9udC1zdHlsZT0iaXRhbGljIiBsZW5ndGhBZGp1c3Q9InNwYWNpbmciIHRleHRMZW5ndGg9IjExNCIgeD0iNjAiIHk9IjM1NS4yODI3Ij5bUm91bmQtcm9iaW4vTGVhc3Q8L3RleHQ+PHRleHQgZmlsbD0iIzY2NjY2NiIgZm9udC1mYW1pbHk9InNhbnMtc2VyaWYiIGZvbnQtc2l6ZT0iMTIiIGZvbnQtc3R5bGU9Iml0YWxpYyIgbGVuZ3RoQWRqdXN0PSJzcGFjaW5nIiB0ZXh0TGVuZ3RoPSI3MSIgeD0iODEuNSIgeT0iMzY5LjQxNTUiPmNvbm5lY3Rpb25zXTwvdGV4dD48L2c+PCEtLWxpbmsgYXBwX3NlcnZlcl8xIHRvIGxvYWRfYmFsYW5jZXItLT48ZyBpZD0ibGlua19hcHBfc2VydmVyXzFfbG9hZF9iYWxhbmNlciI+PHBhdGggZD0iTTE2Ni4zNiw0NzUuMDg4MyBDMTg1LjM2LDQyOC44NTgzIDIxMi4xMSwzNzMuMDU4MyAyNDUsMzI4LjU0ODMgQzI1Ni42NywzMTIuNzU4MyAyNjQuOTA0MSwzMDMuMDM1NCAyNzkuMzQ0MSwyODguODk1NCAiIGZpbGw9Im5vbmUiIGlkPSJhcHBfc2VydmVyXzEtdG8tbG9hZF9iYWxhbmNlciIgc3R5bGU9InN0cm9rZTojNjY2NjY2O3N0cm9rZS13aWR0aDoxLjA7Ii8+PHBvbHlnb24gZmlsbD0iIzY2NjY2NiIgcG9pbnRzPSIyODUuMDYsMjgzLjI5ODMsMjc3LjI0NTEsMjg2Ljc1MiwyODEuNDQzLDI5MS4wMzg5LDI4NS4wNiwyODMuMjk4MyIgc3R5bGU9InN0cm9rZTojNjY2NjY2O3N0cm9rZS13aWR0aDoxLjA7Ii8+PHRleHQgZmlsbD0iIzY2NjY2NiIgZm9udC1mYW1pbHk9InNhbnMtc2VyaWYiIGZvbnQtc2l6ZT0iMTIiIGZvbnQtd2VpZ2h0PSJib2xkIiBsZW5ndGhBZGp1c3Q9InNwYWNpbmciIHRleHRMZW5ndGg9IjMyIiB4PSIyNDYiIHk9IjM0OC4xNDk4Ij5IVFRQPC90ZXh0Pjx0ZXh0IGZpbGw9IiM2NjY2NjYiIGZvbnQtZmFtaWx5PSJzYW5zLXNlcmlmIiBmb250LXNpemU9IjEyIiBmb250LXdlaWdodD0iYm9sZCIgbGVuZ3RoQWRqdXN0PSJzcGFjaW5nIiB0ZXh0TGVuZ3RoPSI0IiB4PSIyNzgiIHk9IjM0OC4xNDk4Ij4mIzE2MDs8L3RleHQ+PHRleHQgZmlsbD0iIzY2NjY2NiIgZm9udC1mYW1pbHk9InNhbnMtc2VyaWYiIGZvbnQtc2l6ZT0iMTIiIGZvbnQtd2VpZ2h0PSJib2xkIiBsZW5ndGhBZGp1c3Q9InNwYWNpbmciIHRleHRMZW5ndGg9IjY3IiB4PSIyODIiIHk9IjM0OC4xNDk4Ij5SZXNwb25zZXM8L3RleHQ+PHRleHQgZmlsbD0iIzY2NjY2NiIgZm9udC1mYW1pbHk9InNhbnMtc2VyaWYiIGZvbnQtc2l6ZT0iMTIiIGZvbnQtc3R5bGU9Iml0YWxpYyIgbGVuZ3RoQWRqdXN0PSJzcGFjaW5nIiB0ZXh0TGVuZ3RoPSI3NSIgeD0iMjYwIiB5PSIzNjIuMjgyNyI+W0pTT04vSFRNTF08L3RleHQ+PC9nPjwhLS1saW5rIGxvYWRfYmFsYW5jZXIgdG8gYXBwX3NlcnZlcl8yLS0+PGcgaWQ9ImxpbmtfbG9hZF9iYWxhbmNlcl9hcHBfc2VydmVyXzIiPjxwYXRoIGQ9Ik0zNjMuMzcsMjk2Ljc1ODMgQzM2MS45OCwzMDcuNDQ4MyAzNjAuOCwzMTguMjE4MyAzNjAsMzI4LjU0ODMgQzM1Ni4yNSwzNzYuODU4MyAzNTYuMzI2LDQyMi44OTI2IDM1Ny43ODYsNDY3LjEwMjYgIiBmaWxsPSJub25lIiBpZD0ibG9hZF9iYWxhbmNlci10by1hcHBfc2VydmVyXzIiIHN0eWxlPSJzdHJva2U6IzY2NjY2NjtzdHJva2Utd2lkdGg6MS4wOyIvPjxwb2x5Z29uIGZpbGw9IiM2NjY2NjYiIHBvaW50cz0iMzU4LjA1LDQ3NS4wOTgzLDM2MC43ODQzLDQ2Ny4wMDM2LDM1NC43ODc2LDQ2Ny4yMDE3LDM1OC4wNSw0NzUuMDk4MyIgc3R5bGU9InN0cm9rZTojNjY2NjY2O3N0cm9rZS13aWR0aDoxLjA7Ii8+PHRleHQgZmlsbD0iIzY2NjY2NiIgZm9udC1mYW1pbHk9InNhbnMtc2VyaWYiIGZvbnQtc2l6ZT0iMTIiIGZvbnQtd2VpZ2h0PSJib2xkIiBsZW5ndGhBZGp1c3Q9InNwYWNpbmciIHRleHRMZW5ndGg9IjQzIiB4PSIzNjYiIHk9IjM0MS4xNDk4Ij5Sb3V0ZXM8L3RleHQ+PHRleHQgZmlsbD0iIzY2NjY2NiIgZm9udC1mYW1pbHk9InNhbnMtc2VyaWYiIGZvbnQtc2l6ZT0iMTIiIGZvbnQtd2VpZ2h0PSJib2xkIiBsZW5ndGhBZGp1c3Q9InNwYWNpbmciIHRleHRMZW5ndGg9IjQiIHg9IjQwOSIgeT0iMzQxLjE0OTgiPiYjMTYwOzwvdGV4dD48dGV4dCBmaWxsPSIjNjY2NjY2IiBmb250LWZhbWlseT0ic2Fucy1zZXJpZiIgZm9udC1zaXplPSIxMiIgZm9udC13ZWlnaHQ9ImJvbGQiIGxlbmd0aEFkanVzdD0ic3BhY2luZyIgdGV4dExlbmd0aD0iNTciIHg9IjQxMyIgeT0iMzQxLjE0OTgiPlJlcXVlc3RzPC90ZXh0Pjx0ZXh0IGZpbGw9IiM2NjY2NjYiIGZvbnQtZmFtaWx5PSJzYW5zLXNlcmlmIiBmb250LXNpemU9IjEyIiBmb250LXN0eWxlPSJpdGFsaWMiIGxlbmd0aEFkanVzdD0ic3BhY2luZyIgdGV4dExlbmd0aD0iMTE0IiB4PSIzNjEiIHk9IjM1NS4yODI3Ij5bUm91bmQtcm9iaW4vTGVhc3Q8L3RleHQ+PHRleHQgZmlsbD0iIzY2NjY2NiIgZm9udC1mYW1pbHk9InNhbnMtc2VyaWYiIGZvbnQtc2l6ZT0iMTIiIGZvbnQtc3R5bGU9Iml0YWxpYyIgbGVuZ3RoQWRqdXN0PSJzcGFjaW5nIiB0ZXh0TGVuZ3RoPSI3MSIgeD0iMzgyLjUiIHk9IjM2OS40MTU1Ij5jb25uZWN0aW9uc108L3RleHQ+PC9nPjwhLS1saW5rIGFwcF9zZXJ2ZXJfMiB0byBsb2FkX2JhbGFuY2VyLS0+PGcgaWQ9ImxpbmtfYXBwX3NlcnZlcl8yX2xvYWRfYmFsYW5jZXIiPjxwYXRoIGQ9Ik0zOTMuMSw0NzUuMjU4MyBDNDA4LjEyLDQ0MS43NjgzIDQyOS4zNCw0MDUuNzk4MyA0NTgsMzgwLjU0ODMgQzQ2NS44MSwzNzMuNjY4MyA0NzQuMDMsMzgxLjA2ODMgNDgwLDM3Mi41NDgzIEM0OTcuNDgsMzQ3LjU5ODMgNDk0LjM4NzEsMzI2LjI3NDkgNDc3LjM3NzEsMzAwLjUwNDkgIiBmaWxsPSJub25lIiBpZD0iYXBwX3NlcnZlcl8yLXRvLWxvYWRfYmFsYW5jZXIiIHN0eWxlPSJzdHJva2U6IzY2NjY2NjtzdHJva2Utd2lkdGg6MS4wOyIvPjxwb2x5Z29uIGZpbGw9IiM2NjY2NjYiIHBvaW50cz0iNDcyLjk3LDI5My44MjgzLDQ3NC44NzMzLDMwMi4xNTc2LDQ3OS44ODA4LDI5OC44NTIzLDQ3Mi45NywyOTMuODI4MyIgc3R5bGU9InN0cm9rZTojNjY2NjY2O3N0cm9rZS13aWR0aDoxLjA7Ii8+PHRleHQgZmlsbD0iIzY2NjY2NiIgZm9udC1mYW1pbHk9InNhbnMtc2VyaWYiIGZvbnQtc2l6ZT0iMTIiIGZvbnQtd2VpZ2h0PSJib2xkIiBsZW5ndGhBZGp1c3Q9InNwYWNpbmciIHRleHRMZW5ndGg9IjMyIiB4PSI0OTAuOTciIHk9IjM0OC4xNDk4Ij5IVFRQPC90ZXh0Pjx0ZXh0IGZpbGw9IiM2NjY2NjYiIGZvbnQtZmFtaWx5PSJzYW5zLXNlcmlmIiBmb250LXNpemU9IjEyIiBmb250LXdlaWdodD0iYm9sZCIgbGVuZ3RoQWRqdXN0PSJzcGFjaW5nIiB0ZXh0TGVuZ3RoPSI0IiB4PSI1MjIuOTciIHk9IjM0OC4xNDk4Ij4mIzE2MDs8L3RleHQ+PHRleHQgZmlsbD0iIzY2NjY2NiIgZm9udC1mYW1pbHk9InNhbnMtc2VyaWYiIGZvbnQtc2l6ZT0iMTIiIGZvbnQtd2VpZ2h0PSJib2xkIiBsZW5ndGhBZGp1c3Q9InNwYWNpbmciIHRleHRMZW5ndGg9IjY3IiB4PSI1MjYuOTciIHk9IjM0OC4xNDk4Ij5SZXNwb25zZXM8L3RleHQ+PHRleHQgZmlsbD0iIzY2NjY2NiIgZm9udC1mYW1pbHk9InNhbnMtc2VyaWYiIGZvbnQtc2l6ZT0iMTIiIGZvbnQtc3R5bGU9Iml0YWxpYyIgbGVuZ3RoQWRqdXN0PSJzcGFjaW5nIiB0ZXh0TGVuZ3RoPSI3NSIgeD0iNTA0Ljk3IiB5PSIzNjIuMjgyNyI+W0pTT04vSFRNTF08L3RleHQ+PC9nPjwhLS1saW5rIGFwcF9zZXJ2ZXJfMSB0byBkYXRhYmFzZS0tPjxnIGlkPSJsaW5rX2FwcF9zZXJ2ZXJfMV9kYXRhYmFzZSI+PHBhdGggZD0iTTE0Ny44OCw2NTYuNjc4MyBDMTUyLjg0LDY4Mi4xNDgzIDE1OS4xOCw3MDkuNzI4MyAxNjcsNzM0LjYwODMgQzE3Ny44NCw3NjkuMTA4MyAxODkuNzI3Miw3OTguNDk2NCAyMDQuMTY3Miw4MzAuMjM2NCAiIGZpbGw9Im5vbmUiIGlkPSJhcHBfc2VydmVyXzEtdG8tZGF0YWJhc2UiIHN0eWxlPSJzdHJva2U6IzY2NjY2NjtzdHJva2Utd2lkdGg6MS4wOyIvPjxwb2x5Z29uIGZpbGw9IiM2NjY2NjYiIHBvaW50cz0iMjA3LjQ4LDgzNy41MTgzLDIwNi44OTc4LDgyOC45OTQxLDIwMS40MzY1LDgzMS40Nzg4LDIwNy40OCw4MzcuNTE4MyIgc3R5bGU9InN0cm9rZTojNjY2NjY2O3N0cm9rZS13aWR0aDoxLjA7Ii8+PHRleHQgZmlsbD0iIzY2NjY2NiIgZm9udC1mYW1pbHk9InNhbnMtc2VyaWYiIGZvbnQtc2l6ZT0iMTIiIGZvbnQtd2VpZ2h0PSJib2xkIiBsZW5ndGhBZGp1c3Q9InNwYWNpbmciIHRleHRMZW5ndGg9IjI0IiB4PSIxOTYuNSIgeT0iNzE3LjIwOTgiPlNRTDwvdGV4dD48dGV4dCBmaWxsPSIjNjY2NjY2IiBmb250LWZhbWlseT0ic2Fucy1zZXJpZiIgZm9udC1zaXplPSIxMiIgZm9udC13ZWlnaHQ9ImJvbGQiIGxlbmd0aEFkanVzdD0ic3BhY2luZyIgdGV4dExlbmd0aD0iNCIgeD0iMjIwLjUiIHk9IjcxNy4yMDk4Ij4mIzE2MDs8L3RleHQ+PHRleHQgZmlsbD0iIzY2NjY2NiIgZm9udC1mYW1pbHk9InNhbnMtc2VyaWYiIGZvbnQtc2l6ZT0iMTIiIGZvbnQtd2VpZ2h0PSJib2xkIiBsZW5ndGhBZGp1c3Q9InNwYWNpbmciIHRleHRMZW5ndGg9IjQ4IiB4PSIyMjQuNSIgeT0iNzE3LjIwOTgiPlF1ZXJpZXM8L3RleHQ+PHRleHQgZmlsbD0iIzY2NjY2NiIgZm9udC1mYW1pbHk9InNhbnMtc2VyaWYiIGZvbnQtc2l6ZT0iMTIiIGZvbnQtc3R5bGU9Iml0YWxpYyIgbGVuZ3RoQWRqdXN0PSJzcGFjaW5nIiB0ZXh0TGVuZ3RoPSIxMDEiIHg9IjE2OCIgeT0iNzMxLjM0MjciPltKREJDL0Nvbm5lY3Rpb248L3RleHQ+PHRleHQgZmlsbD0iIzY2NjY2NiIgZm9udC1mYW1pbHk9InNhbnMtc2VyaWYiIGZvbnQtc2l6ZT0iMTIiIGZvbnQtc3R5bGU9Iml0YWxpYyIgbGVuZ3RoQWRqdXN0PSJzcGFjaW5nIiB0ZXh0TGVuZ3RoPSI0IiB4PSIyNjkiIHk9IjczMS4zNDI3Ij4mIzE2MDs8L3RleHQ+PHRleHQgZmlsbD0iIzY2NjY2NiIgZm9udC1mYW1pbHk9InNhbnMtc2VyaWYiIGZvbnQtc2l6ZT0iMTIiIGZvbnQtc3R5bGU9Iml0YWxpYyIgbGVuZ3RoQWRqdXN0PSJzcGFjaW5nIiB0ZXh0TGVuZ3RoPSIyOCIgeD0iMjczIiB5PSI3MzEuMzQyNyI+UG9vbF08L3RleHQ+PC9nPjwhLS1saW5rIGFwcF9zZXJ2ZXJfMiB0byBkYXRhYmFzZS0tPjxnIGlkPSJsaW5rX2FwcF9zZXJ2ZXJfMl9kYXRhYmFzZSI+PHBhdGggZD0iTTMzNC40OSw2NTYuOTk4MyBDMzE2Ljk2LDcxMi4yNDgzIDI5Ny4wNTg0LDc3NS4wMjI2IDI3OS43NTg0LDgyOS41NzI2ICIgZmlsbD0ibm9uZSIgaWQ9ImFwcF9zZXJ2ZXJfMi10by1kYXRhYmFzZSIgc3R5bGU9InN0cm9rZTojNjY2NjY2O3N0cm9rZS13aWR0aDoxLjA7Ii8+PHBvbHlnb24gZmlsbD0iIzY2NjY2NiIgcG9pbnRzPSIyNzcuMzQsODM3LjE5ODMsMjgyLjYxODEsODMwLjQ3OTUsMjc2Ljg5ODgsODI4LjY2NTcsMjc3LjM0LDgzNy4xOTgzIiBzdHlsZT0ic3Ryb2tlOiM2NjY2NjY7c3Ryb2tlLXdpZHRoOjEuMDsiLz48dGV4dCBmaWxsPSIjNjY2NjY2IiBmb250LWZhbWlseT0ic2Fucy1zZXJpZiIgZm9udC1zaXplPSIxMiIgZm9udC13ZWlnaHQ9ImJvbGQiIGxlbmd0aEFkanVzdD0ic3BhY2luZyIgdGV4dExlbmd0aD0iMjQiIHg9IjM0Ny43OSIgeT0iNzE3LjIwOTgiPlNRTDwvdGV4dD48dGV4dCBmaWxsPSIjNjY2NjY2IiBmb250LWZhbWlseT0ic2Fucy1zZXJpZiIgZm9udC1zaXplPSIxMiIgZm9udC13ZWlnaHQ9ImJvbGQiIGxlbmd0aEFkanVzdD0ic3BhY2luZyIgdGV4dExlbmd0aD0iNCIgeD0iMzcxLjc5IiB5PSI3MTcuMjA5OCI+JiMxNjA7PC90ZXh0Pjx0ZXh0IGZpbGw9IiM2NjY2NjYiIGZvbnQtZmFtaWx5PSJzYW5zLXNlcmlmIiBmb250LXNpemU9IjEyIiBmb250LXdlaWdodD0iYm9sZCIgbGVuZ3RoQWRqdXN0PSJzcGFjaW5nIiB0ZXh0TGVuZ3RoPSI0OCIgeD0iMzc1Ljc5IiB5PSI3MTcuMjA5OCI+UXVlcmllczwvdGV4dD48dGV4dCBmaWxsPSIjNjY2NjY2IiBmb250LWZhbWlseT0ic2Fucy1zZXJpZiIgZm9udC1zaXplPSIxMiIgZm9udC1zdHlsZT0iaXRhbGljIiBsZW5ndGhBZGp1c3Q9InNwYWNpbmciIHRleHRMZW5ndGg9IjEwMSIgeD0iMzE5LjI5IiB5PSI3MzEuMzQyNyI+W0pEQkMvQ29ubmVjdGlvbjwvdGV4dD48dGV4dCBmaWxsPSIjNjY2NjY2IiBmb250LWZhbWlseT0ic2Fucy1zZXJpZiIgZm9udC1zaXplPSIxMiIgZm9udC1zdHlsZT0iaXRhbGljIiBsZW5ndGhBZGp1c3Q9InNwYWNpbmciIHRleHRMZW5ndGg9IjQiIHg9IjQyMC4yOSIgeT0iNzMxLjM0MjciPiYjMTYwOzwvdGV4dD48dGV4dCBmaWxsPSIjNjY2NjY2IiBmb250LWZhbWlseT0ic2Fucy1zZXJpZiIgZm9udC1zaXplPSIxMiIgZm9udC1zdHlsZT0iaXRhbGljIiBsZW5ndGhBZGp1c3Q9InNwYWNpbmciIHRleHRMZW5ndGg9IjI4IiB4PSI0MjQuMjkiIHk9IjczMS4zNDI3Ij5Qb29sXTwvdGV4dD48L2c+PCEtLWxpbmsgYXBwX3NlcnZlcl8xIHRvIEdNTjIxLS0+PGcgaWQ9ImxpbmtfYXBwX3NlcnZlcl8xX0dNTjIxIj48cGF0aCBkPSJNMTY3LjQ4LDQ3NS4xNzgzIEMxODkuNjgsNDI4Ljk5ODMgMjIzLjgsMzc3LjEzODMgMjcyLjUsMzUwLjU0ODMgQzMxNC40MywzMjcuNjQ4MyA0NDUuNTMsMzI3LjcxODMgNDg3LjUsMzUwLjU0ODMgQzU1MS4xMywzODUuMTU4MyA1OTAuMTksNDYyLjY3ODMgNjEwLjIzLDUxNC42NzgzICIgZmlsbD0ibm9uZSIgaWQ9ImFwcF9zZXJ2ZXJfMS1HTU4yMSIgc3R5bGU9InN0cm9rZTojNjY2NjY2O3N0cm9rZS13aWR0aDoxLjA7c3Ryb2tlLWRhc2hhcnJheTo3LjAsNy4wOyIvPjwvZz48IS0tbGluayBkYXRhYmFzZSB0byBHTU4yNC0tPjxnIGlkPSJsaW5rX2RhdGFiYXNlX0dNTjI0Ij48cGF0aCBkPSJNMjc1LjMxLDgzNy4xNTgzIEMyOTMuNDcsNzkyLjQxODMgMzIzLjEyLDc0Mi41OTgzIDM2OS41LDcxOS42MDgzIEM0NDIsNjgzLjY3ODMgNDg5Ljc4LDgwMS4yNzgzIDUxMS41MSw4NzMuMDI4MyAiIGZpbGw9Im5vbmUiIGlkPSJkYXRhYmFzZS1HTU4yNCIgc3R5bGU9InN0cm9rZTojNjY2NjY2O3N0cm9rZS13aWR0aDoxLjA7c3Ryb2tlLWRhc2hhcnJheTo3LjAsNy4wOyIvPjwvZz48IS0tbGluayBHTU4yNyB0byBhcHBfYm91bmRhcnktLT48ZyBpZD0ibGlua19HTU4yN19hcHBfYm91bmRhcnkiPjxwYXRoIGQ9Ik05ODAuNzYsMjQ5LjY3ODMgQzk4NC45OSwyODcuOTY4MyA5ODMuNzYsMzQyLjYxODMgOTUwLDM3Mi41NDgzIEM5MzEuNTgsMzg4Ljg3ODMgNTI1LjA4LDM2My44NDgzIDUwNywzODAuNTQ4MyBDNTAzLjI3NjMsMzgzLjk4ODMgNDk5Ljk0MjYsMzg3LjcwMzUgNDk2Ljk2NTEsMzkxLjY0NyBDNDk2LjIyMDcsMzkyLjYzMjkgNDk1LjQ5ODYsMzkzLjYzMyA0OTQuNzk4MiwzOTQuNjQ2NyBDNDk0LjQ0OCwzOTUuMTUzNSA0OTQuMTAzMywzOTUuNjYzOCA0OTMuNzYzOSwzOTYuMTc3MyAiIGZpbGw9Im5vbmUiIGlkPSJHTU4yNy1hcHBfYm91bmRhcnkiIHN0eWxlPSJzdHJva2U6IzY2NjY2NjtzdHJva2Utd2lkdGg6MS4wO3N0cm9rZS1kYXNoYXJyYXk6Ny4wLDcuMDsiLz48L2c+PCEtLWxpbmsgZGF0YV9ib3VuZGFyeSB0byBHTU4zMC0tPjxnIGlkPSJsaW5rX2RhdGFfYm91bmRhcnlfR01OMzAiPjxwYXRoIGQ9Ik0zODQsMTAzNS41MTM4IEMzODQsMTAzNS43OTMyIDM4NCwxMDM2LjA3MjYgMzg0LDEwMzYuMzUxOSBDMzg0LDEwMzcuNDY5IDM4NCwxMDM4LjU4NDkgMzg0LDEwMzkuNjk5MiBDMzg0LDEwNTcuNTI3NyAzODQsMTA3NC45MjU4IDM4NCwxMDg5Ljc0ODMgIiBmaWxsPSJub25lIiBpZD0iZGF0YV9ib3VuZGFyeS1HTU4zMCIgc3R5bGU9InN0cm9rZTojNjY2NjY2O3N0cm9rZS13aWR0aDoxLjA7c3Ryb2tlLWRhc2hhcnJheTo3LjAsNy4wOyIvPjwvZz48IS0tU1JDPVtoTFJCUmtDczVEdHhBbllaRzlFV1paMWZrbmNXMnB5b1pHVUV1eDRvZFV1Q0loZ3NzTDJhWGdJSVVlZTJfUFAtTWgtYVh0aE9hYzlGRXFNcFMySm95anZwcGRyR1BxQjVDYS04UlB0QnhFaVdDRnB2UVlGU0Rlem9Jb1JNb2Y1b0x4NUVXcW5vdlY5SzNnbkJmOFkyeU5VM1hMendWcFNCS2N1VDZJb2puWloxWEk5cGJTNnNycGpCUThyTkRoZHZRSmctZHVWXzhmM0JDdndPUm15MTFOTzdRcldDUjZRNDhybDdJLVo5eHpiemIzVnR5dVZYWHZsbV9reGNWbXJLaEY1ZGlaZ2JtVlV6aXJncmNiTFdZQ1VrZkZub3luVi1uNF9qUFRnd1pJN3hLTk9pNmJHMjN6bi1QWF9SSnhOWUhtcUl4ZFo0QkxMOVNTOTlPWURrSFNwa2pEOEl5azFuYzZMSW5EbTloTFdPU29kS1haclpZeXFxSnMwRWNNOG9sVHUyUUJHd0JyMXptX2hsX1Z5LTdjdkttZWY1bmtFT2hGTmR0UE9PRl9ZNXNMVWJqWl9xMnpGLUhReU54WTFva1hoZk4yTlN4Q3ZiajhnZ1B0WGoxRlNFUHRuN2ZkXzFWa2luX0V0QnhMcDJSMUxMNkRsN084LTUtT19KLVNfMXhOMVh6QXl4bHAwSHJYYUh2U1dwV3NXd3pVdURWU3A5RWFfMVE2alBjYWlkQ2phWTBNbGhsNV9SZjVDYzBObi1WeWE4WHZrS2NhQVZ1a0VGYjJ2Tmh5ZVpCMm5Vc0lpRl9ZcmdZZUs4M1NtWmhQclZRd0pvNjVnc3ZJZWZhZWZFRzBvbWF0ZVp1WU85TndnV1MxQkFUSGxBeklhZXFtSEQxVzJJZlZ5MFFncURINC15RFloVTdTNW9INHZWcGFxejl0V185VUdhRWctaDd2T0I4ckFTT1BEZ29NRFRiMnFPbGZsdmp6MWZqMkZaS2hSbVVYemJDbXA3cW1kQlpDeDhFRDRrV0tDcGJ4WV9QaHV0bTFLcDFGRDEtNTZyOTVidEpoVGFSbnlVNWU3XzJUY29BYUVGdzBENXAxYy1OWURMNXp2ZktUaHJFUFJLUEdwdFhWVUVzcXVYQk5MSHlDcTBJd19hbUVYOGc2MTZjN1dDU3IxSDJIV1hGLV9xLWh5djFPemM2cFpEd1pHTHlUZ2U2bmI0Y2pZeGQ0bWZWVl9qUDNHRW5kbEZSQTZyaDIydENOd24ybTFTYWlzMDVhS2d6VkNITUNTSWszekstV3hsdnFaZnRVbWVmWXlfdHBiSFotMk4xdHRITDdVVHZ3QXE4c1I0UGtrT05oVlplYnFrQnBqM0RhSXpFVGYwZURVTmJwM3V3dXlfTVA1R18yQVhyS2dQcmVEb2piZ1ZCaldqanpsZ3hQUXVIRGtDam5HX3JYUVhsbnFXekgxNWhPSlJpTkVuUGVlZWVVSVlIbVpaeU5QSER4S2xHM1ZoUHhwYmxpTUdMOGt2cXUwVEVaMkhWaldiUENMNmVOTGZKR09aZnFReDdySzlQTEJsS2hwa1NTOGg5THg4alRaYWZXWExSSktBOWFGMUdCTVFocFJZYXZ5LWFqZGc0aU5OR1I4eG9NalZ6dnZKRlBZeVZvaUlBY0NzLVMwWGhnRENPd2h1cXNpa1A2eGU5SWVmS2I0cTdTTzM5azZVS3A2X1NEajFFdl9fUWRONHV5U3lPeFdYVzNSTTQ3Yk54VTJzbnVuRVlzNkRPSXVtN3B0UDNYa2RpcGY3ek0way1ESlY0SURJLTRIcDNJOUo1S0NOMnRkVHJrWHlpeXJvTHNzenVSWHJ1TEEyX1c1WUtRRWpRTFQxOXVVeTB4UkxrRzU4eDRkbmdTbkwxc01hZFREZkJOZVJ3Slg3S0szSmNUVWpnX2UtQlR3MzE5VnVpVGdQd29BelRReFJNUWdJS3NSaFVFNktVUjg3Zjd5M10tLT48L2c+PC9zdmc+;plantuml=QHN0YXJ0dW1sCiFpbmNsdWRlIGh0dHBzOi8vcmF3LmdpdGh1YnVzZXJjb250ZW50LmNvbS9wbGFudHVtbC1zdGRsaWIvQzQtUGxhbnRVTUwvbWFzdGVyL0M0X0NvbnRhaW5lci5wdW1sCgohZGVmaW5lIERFVklDT05TIGh0dHBzOi8vcmF3LmdpdGh1YnVzZXJjb250ZW50LmNvbS90dXBhZHIzL3BsYW50dW1sLWljb24tZm9udC1zcHJpdGVzL21hc3Rlci9kZXZpY29ucwohZGVmaW5lIEZPTlRBV0VTT01FIGh0dHBzOi8vcmF3LmdpdGh1YnVzZXJjb250ZW50LmNvbS90dXBhZHIzL3BsYW50dW1sLWljb24tZm9udC1zcHJpdGVzL21hc3Rlci9mb250LWF3ZXNvbWUtNQohaW5jbHVkZSBERVZJQ09OUy9yZWFjdC5wdW1sCiFpbmNsdWRlIERFVklDT05TL2phdmEucHVtbAohaW5jbHVkZSBERVZJQ09OUy9wb3N0Z3Jlc3FsLnB1bWwKIWluY2x1ZGUgRk9OVEFXRVNPTUUvdXNlcnMucHVtbAohaW5jbHVkZSBGT05UQVdFU09NRS9zZXJ2ZXIucHVtbAohaW5jbHVkZSBGT05UQVdFU09NRS9kYXRhYmFzZS5wdW1sCgp0aXRsZSBCYXNpYyBNb25vbGl0aGljIEFwcGxpY2F0aW9uIFNjYWxpbmcgd2l0aCBMb2FkIEJhbGFuY2VyCgpQZXJzb24odXNlcnMsICJVc2VycyIsICJFbmQgdXNlcnMgYWNjZXNzaW5nIHRoZSBhcHBsaWNhdGlvbiIsICRzcHJpdGU9InVzZXJzIikKClN5c3RlbV9Cb3VuZGFyeShsYl9ib3VuZGFyeSwgIkxvYWQgQmFsYW5jaW5nIExheWVyIikgewogICAgQ29udGFpbmVyKGxvYWRfYmFsYW5jZXIsICJMb2FkIEJhbGFuY2VyIiwgIk5HSU5YL0hBUHJveHkiLCAiRGlzdHJpYnV0ZXMgaW5jb21pbmcgcmVxdWVzdHMgYWNyb3NzIG11bHRpcGxlIGFwcGxpY2F0aW9uIGluc3RhbmNlcyIsICRzcHJpdGU9InNlcnZlciIpCn0KClN5c3RlbV9Cb3VuZGFyeShhcHBfYm91bmRhcnksICJBcHBsaWNhdGlvbiBMYXllciIpIHsKICAgIENvbnRhaW5lcihhcHBfc2VydmVyXzEsICJBcHAgU2VydmVyIDEiLCAiSmF2YSBTcHJpbmcgQm9vdCIsICJNb25vbGl0aGljIGFwcGxpY2F0aW9uIGluc3RhbmNlIGhhbmRsaW5nIGJ1c2luZXNzIGxvZ2ljIiwgJHNwcml0ZT0iamF2YSIpCiAgICBDb250YWluZXIoYXBwX3NlcnZlcl8yLCAiQXBwIFNlcnZlciAyIiwgIkphdmEgU3ByaW5nIEJvb3QiLCAiSWRlbnRpY2FsIG1vbm9saXRoaWMgYXBwbGljYXRpb24gaW5zdGFuY2UgZm9yIHJlZHVuZGFuY3kiLCAkc3ByaXRlPSJqYXZhIikKfQoKU3lzdGVtX0JvdW5kYXJ5KGRhdGFfYm91bmRhcnksICJEYXRhIExheWVyIikgewogICAgQ29udGFpbmVyRGIoZGF0YWJhc2UsICJQcmltYXJ5IERhdGFiYXNlIiwgIlBvc3RncmVTUUwiLCAiU3RvcmVzIGFsbCBhcHBsaWNhdGlvbiBkYXRhIHdpdGggQUNJRCBwcm9wZXJ0aWVzIiwgJHNwcml0ZT0icG9zdGdyZXNxbCIpCn0KCicgVXNlciBpbnRlcmFjdGlvbnMKUmVsKHVzZXJzLCBsb2FkX2JhbGFuY2VyLCAiSFRUUC9IVFRQUyBSZXF1ZXN0cyIsICJXZWIgdHJhZmZpYyIpCgonIExvYWQgYmFsYW5jZXIgZGlzdHJpYnV0aW9uClJlbChsb2FkX2JhbGFuY2VyLCBhcHBfc2VydmVyXzEsICJSb3V0ZXMgUmVxdWVzdHMiLCAiUm91bmQtcm9iaW4vTGVhc3QgY29ubmVjdGlvbnMiKQpSZWwobG9hZF9iYWxhbmNlciwgYXBwX3NlcnZlcl8yLCAiUm91dGVzIFJlcXVlc3RzIiwgIlJvdW5kLXJvYmluL0xlYXN0IGNvbm5lY3Rpb25zIikKCicgQXBwbGljYXRpb24gdG8gZGF0YWJhc2UKUmVsKGFwcF9zZXJ2ZXJfMSwgZGF0YWJhc2UsICJTUUwgUXVlcmllcyIsICJKREJDL0Nvbm5lY3Rpb24gUG9vbCIpClJlbChhcHBfc2VydmVyXzIsIGRhdGFiYXNlLCAiU1FMIFF1ZXJpZXMiLCAiSkRCQy9Db25uZWN0aW9uIFBvb2wiKQoKJyBSZXNwb25zZSBmbG93ClJlbChhcHBfc2VydmVyXzEsIGxvYWRfYmFsYW5jZXIsICJIVFRQIFJlc3BvbnNlcyIsICJKU09OL0hUTUwiKQpSZWwoYXBwX3NlcnZlcl8yLCBsb2FkX2JhbGFuY2VyLCAiSFRUUCBSZXNwb25zZXMiLCAiSlNPTi9IVE1MIikKUmVsKGxvYWRfYmFsYW5jZXIsIHVzZXJzLCAiSFRUUCBSZXNwb25zZXMiLCAiV2ViIGNvbnRlbnQiKQoKbm90ZSByaWdodCBvZiBsb2FkX2JhbGFuY2VyCiAgKipMb2FkIEJhbGFuY2luZyBTdHJhdGVnaWVzOioqCiAg4oCiIFJvdW5kIFJvYmluCiAg4oCiIExlYXN0IENvbm5lY3Rpb25zCiAg4oCiIElQIEhhc2gKICDigKIgSGVhbHRoIENoZWNrcwogIOKAoiBTZXNzaW9uIEFmZmluaXR5IChpZiBuZWVkZWQpCmVuZCBub3RlCgpub3RlIHJpZ2h0IG9mIGFwcF9zZXJ2ZXJfMQogICoqQXBwbGljYXRpb24gQ2hhcmFjdGVyaXN0aWNzOioqCiAg4oCiIFN0YXRlbGVzcyBkZXNpZ24gcHJlZmVycmVkCiAg4oCiIElkZW50aWNhbCBkZXBsb3ltZW50cwogIOKAoiBTaGFyZWQgY29uZmlndXJhdGlvbgogIOKAoiBDb25uZWN0aW9uIHBvb2xpbmcKICDigKIgSG9yaXpvbnRhbCBzY2FsaW5nIHJlYWR5CmVuZCBub3RlCgpub3RlIHJpZ2h0IG9mIGRhdGFiYXNlCiAgKipEYXRhYmFzZSBDb25zaWRlcmF0aW9uczoqKgogIOKAoiBTaW5nbGUgcG9pbnQgb2YgZmFpbHVyZQogIOKAoiBDb25uZWN0aW9uIGxpbWl0IGNvbnN0cmFpbnRzCiAg4oCiIEFDSUQgY29tcGxpYW5jZQogIOKAoiBCYWNrdXAgYW5kIHJlY292ZXJ5CiAg4oCiIFBlcmZvcm1hbmNlIG1vbml0b3JpbmcKZW5kIG5vdGUKCm5vdGUgdG9wIG9mIGFwcF9ib3VuZGFyeQogICoqU2NhbGluZyBCZW5lZml0czoqKgogIOKAoiBJbmNyZWFzZWQgdGhyb3VnaHB1dAogIOKAoiBGYXVsdCB0b2xlcmFuY2UKICDigKIgTG9hZCBkaXN0cmlidXRpb24KICDigKIgQmV0dGVyIHJlc291cmNlIHV0aWxpemF0aW9uCmVuZCBub3RlCgpub3RlIGJvdHRvbSBvZiBkYXRhX2JvdW5kYXJ5CiAgKipDdXJyZW50IExpbWl0YXRpb25zOioqCiAg4oCiIERhdGFiYXNlIGJvdHRsZW5lY2sKICDigKIgTm8gcmVhZCBzY2FsaW5nCiAg4oCiIFNpbmdsZSBmYWlsdXJlIHBvaW50CiAg4oCiIENvbm5lY3Rpb24gcG9vbCBsaW1pdHMKZW5kIG5vdGUKCkBlbmR1bWw=;" vertex="1" parent="1">
          <mxGeometry x="40" y="40" width="400" height="300" as="geometry" />
        </mxCell>
      </root>
    </mxGraphModel>
  </diagram>
</mxfile>